<?xml version="1.0" standalone="no"?>
<!DOCTYPE svg PUBLIC "-//W3C//DTD SVG 20010904//EN"
 "http://www.w3.org/TR/2001/REC-SVG-20010904/DTD/svg10.dtd">
<svg version="1.0" xmlns="http://www.w3.org/2000/svg"
 width="1600.000000pt" height="1600.000000pt" viewBox="0 0 1600.000000 1600.000000"
 preserveAspectRatio="xMidYMid meet">

<g transform="translate(0.000000,1600.000000) scale(0.100000,-0.100000)"
fill="#000000" stroke="none">
<path d="M7685 14433 c-318 -26 -577 -85 -864 -197 -417 -163 -752 -385 -1066
-707 -350 -359 -573 -731 -730 -1219 -133 -413 -167 -912 -95 -1382 74 -482
297 -990 601 -1373 l62 -79 2 -180 c1 -160 4 -195 29 -301 24 -101 28 -144 30
-272 1 -137 3 -154 22 -180 38 -51 75 -64 201 -74 65 -6 185 -21 268 -35 307
-51 397 -46 757 42 121 29 225 51 229 48 5 -3 9 -11 9 -18 0 -21 75 -100 114
-121 42 -23 66 -66 96 -176 20 -74 52 -240 47 -245 -1 -1 -62 15 -135 36 -154
46 -564 140 -737 171 -169 29 -411 36 -534 15 -158 -28 -309 -116 -330 -193
-26 -92 -10 -324 43 -653 50 -307 123 -550 248 -825 84 -183 245 -457 341
-578 32 -41 148 -250 209 -379 73 -152 73 -217 -2 -281 -57 -49 -144 -74 -375
-108 -207 -32 -283 -52 -336 -90 -52 -37 -80 -121 -63 -186 l6 -23 804 0 804
0 0 46 c0 79 -67 255 -186 489 -119 234 -172 364 -204 497 -22 92 -26 224 -9
309 23 120 40 294 46 477 3 105 7 192 8 192 1 0 43 -40 93 -90 50 -49 124
-112 164 -141 69 -49 211 -124 277 -147 17 -6 31 -17 31 -25 0 -28 109 -235
178 -337 89 -132 162 -214 271 -301 139 -113 158 -119 347 -122 143 -2 176 1
327 31 345 66 644 96 967 96 403 1 623 -50 755 -174 108 -103 133 -211 75
-327 -41 -83 -105 -145 -177 -171 -80 -30 -82 -32 -89 -83 -8 -56 8 -113 47
-172 l31 -47 167 0 168 0 55 57 c30 32 72 82 92 111 21 29 46 57 56 62 25 13
68 108 81 177 14 76 -1 157 -57 308 l-46 120 17 107 c29 178 15 247 -59 302
-25 19 -42 21 -184 22 -172 1 -259 14 -420 66 -135 43 -211 79 -336 162 -139
92 -214 130 -313 157 -98 28 -256 30 -357 5 l-70 -17 -74 36 c-247 117 -425
351 -471 617 -11 66 -11 69 19 129 62 121 76 207 90 554 10 252 25 336 81 472
45 106 61 112 291 117 251 5 388 35 846 186 311 102 436 131 633 145 l87 7 -5
56 c-6 68 12 297 32 420 53 306 202 754 384 1151 88 192 113 279 118 428 5
104 2 132 -15 190 -24 77 -77 171 -127 223 l-33 35 -5 220 c-7 285 -37 486
-112 761 -98 357 -313 765 -565 1074 -504 617 -1249 1020 -2029 1095 -136 13
-433 18 -546 8z m555 -108 c214 -25 404 -66 603 -131 158 -51 196 -69 207 -99
5 -14 14 -25 20 -25 5 0 10 -6 10 -14 0 -7 7 -19 16 -27 13 -10 17 -10 25 2 7
12 9 12 9 -1 0 -25 106 -70 124 -53 3 3 -1 15 -11 25 -9 10 -14 21 -10 24 10
11 27 -6 48 -49 35 -69 39 -71 68 -43 l26 25 85 -55 c47 -29 79 -54 71 -54 -8
0 -11 -7 -7 -17 4 -12 0 -10 -10 5 -9 12 -22 22 -29 22 -7 0 -24 11 -40 25
-15 15 -32 24 -39 22 -14 -5 -9 -56 10 -84 10 -16 11 -29 4 -48 -9 -25 -30
-35 -30 -15 0 7 -6 7 -20 0 -11 -6 -20 -17 -20 -25 0 -8 -6 -18 -13 -22 -24
-15 -49 -65 -43 -86 3 -12 17 -29 32 -38 l27 -16 -47 -18 c-25 -10 -46 -21
-46 -26 0 -21 38 -69 64 -81 16 -7 32 -19 34 -26 3 -9 -15 -4 -48 13 -55 28
-101 28 -64 0 17 -12 17 -14 2 -15 -9 0 -18 -6 -21 -12 -3 -8 -10 0 -18 17
l-13 30 -4 -38 c-2 -27 2 -45 15 -59 10 -11 29 -43 43 -71 22 -45 29 -52 53
-50 28 2 34 -6 16 -24 -7 -7 -5 -21 7 -46 20 -43 10 -100 -20 -105 -15 -3 -16
-1 -6 19 18 32 6 97 -23 128 -14 14 -37 51 -52 81 -15 30 -33 62 -40 70 -7 8
-18 32 -25 53 -12 39 -34 57 -69 57 -19 0 -19 -5 -14 -72 3 -40 11 -84 19 -98
7 -14 15 -33 18 -43 3 -9 16 -21 29 -26 24 -9 53 -38 45 -46 -2 -3 -33 11 -69
30 -35 19 -77 35 -94 35 -16 0 -45 9 -62 20 -26 15 -33 17 -33 6 0 -8 16 -24
35 -36 49 -30 49 -54 -2 -56 -17 0 -43 -8 -57 -17 -23 -15 -26 -16 -34 -1 -8
14 -13 14 -33 4 -33 -17 -89 -71 -89 -86 0 -19 -20 -28 -33 -15 -7 7 -12 26
-12 44 0 25 -5 33 -27 41 -33 12 -43 5 -30 -21 10 -20 32 -85 32 -96 0 -4 -11
-7 -23 -7 -36 0 -61 -33 -54 -70 7 -34 -1 -37 -43 -15 -37 19 -53 0 -22 -26
25 -20 28 -29 8 -29 -23 0 -66 48 -66 74 0 16 -9 32 -25 42 -38 25 -25 27 43
8 57 -16 63 -16 86 0 32 21 34 56 4 82 -44 39 -127 85 -162 91 -20 3 -39 10
-42 14 -3 5 -22 9 -42 9 -35 1 -36 1 -17 16 17 13 18 16 5 24 -8 5 -24 10 -36
10 -11 0 -26 6 -32 12 -10 10 -15 10 -22 -1 -7 -12 -11 -12 -23 -2 -13 10 -23
8 -56 -13 -22 -14 -45 -26 -51 -26 -5 0 -10 -4 -10 -9 0 -5 -17 -18 -37 -28
-26 -12 -37 -24 -35 -35 2 -11 -3 -18 -13 -18 -8 0 -15 5 -15 11 0 5 -4 7 -10
4 -15 -10 -12 -45 5 -45 10 0 5 -17 -20 -64 -19 -35 -35 -71 -35 -80 0 -18
-69 -116 -81 -116 -4 0 -29 -19 -54 -42 -44 -40 -46 -45 -41 -83 3 -22 7 -59
9 -81 5 -79 46 -95 105 -43 l36 32 18 -53 c10 -29 23 -59 30 -67 10 -12 8 -18
-11 -33 -15 -11 -21 -22 -16 -30 5 -8 3 -11 -6 -8 -9 3 -15 22 -16 53 -1 26
-4 50 -7 52 -2 3 -16 -3 -30 -12 -28 -19 -34 -54 -17 -112 11 -38 5 -44 -57
-62 -31 -9 -46 -20 -54 -39 -7 -15 -36 -51 -66 -80 -41 -39 -60 -51 -74 -46
-14 4 -21 0 -25 -15 -4 -16 -13 -21 -39 -21 -44 0 -46 -28 -5 -52 42 -23 63
-68 55 -117 -4 -22 -12 -42 -18 -44 -7 -3 -47 -1 -91 3 -106 10 -115 4 -115
-78 0 -35 -5 -72 -10 -83 -16 -29 12 -104 38 -104 11 0 30 -9 41 -19 18 -16
25 -17 47 -8 13 7 39 12 55 12 43 0 89 48 89 92 1 36 19 63 62 90 18 12 28 28
30 50 3 32 4 33 48 31 34 -2 52 4 78 24 37 28 55 25 76 -11 20 -33 72 -84 103
-99 17 -9 42 -30 57 -47 34 -41 23 -61 -41 -75 l-48 -11 35 -22 c42 -26 60
-28 60 -6 0 9 12 28 26 41 21 19 25 30 20 55 -5 27 -4 30 14 25 43 -11 28 15
-29 52 -60 38 -131 118 -131 145 0 30 18 24 73 -24 30 -28 59 -50 63 -50 4 0
22 -11 41 -26 23 -18 33 -33 33 -53 0 -16 11 -45 25 -65 14 -20 25 -41 25 -47
0 -17 43 -69 57 -69 8 0 17 8 20 18 4 9 13 22 21 28 13 10 11 16 -11 46 -32
41 -32 44 -9 52 9 3 24 11 33 17 27 20 49 4 49 -36 0 -21 5 -35 13 -35 8 0 8
-3 -2 -9 -12 -8 -10 -16 13 -45 15 -20 34 -36 42 -36 8 0 23 -5 33 -12 15 -9
26 -9 47 1 19 8 30 9 38 1 13 -13 63 -13 71 0 3 6 14 10 24 10 27 0 33 -57 13
-122 -25 -79 -27 -81 -82 -74 -26 4 -60 2 -74 -4 -36 -13 -133 8 -213 48 -50
25 -87 8 -91 -41 -4 -47 -20 -54 -63 -28 -19 12 -41 21 -49 21 -8 0 -24 12
-35 26 -15 19 -33 27 -66 31 -57 6 -98 35 -81 55 16 20 8 89 -12 100 -9 5 -29
7 -44 4 -15 -3 -67 -8 -117 -12 -85 -6 -165 -30 -180 -54 -6 -9 -80 -6 -121 6
-17 4 -23 0 -28 -21 -4 -15 -25 -39 -51 -57 -35 -25 -46 -40 -51 -67 -11 -69
-26 -102 -52 -118 -55 -34 -95 -80 -139 -162 -42 -75 -45 -87 -35 -115 21 -62
22 -100 3 -153 -10 -30 -14 -58 -9 -65 4 -7 8 -23 8 -36 0 -14 21 -44 54 -78
30 -31 60 -69 66 -84 7 -16 44 -54 83 -85 63 -51 74 -56 101 -49 17 5 67 8
111 9 63 1 89 5 115 22 71 42 116 36 143 -17 11 -22 19 -25 66 -25 44 0 56 -4
68 -22 12 -18 13 -29 5 -50 -31 -81 -25 -131 24 -184 l24 -25 -87 18 c-60 13
-118 18 -183 16 -84 -3 -102 -7 -145 -32 -85 -50 -179 -156 -227 -254 -39 -79
-42 -94 -42 -162 0 -73 17 -150 34 -150 4 0 13 14 20 31 18 41 52 64 78 50 18
-10 29 -40 47 -136 8 -43 25 -359 19 -364 -2 -3 -21 11 -42 31 -76 72 -170
108 -282 108 -138 0 -267 -53 -555 -227 -110 -66 -228 -135 -263 -152 l-63
-32 -47 34 c-40 29 -47 39 -47 68 0 23 -5 35 -17 37 -26 5 -31 32 -5 29 19 -2
22 2 19 31 -2 30 0 32 31 32 58 0 72 34 37 92 l-19 33 37 0 c32 0 37 4 45 30
5 17 14 39 19 49 6 11 18 43 28 72 15 44 17 59 7 90 -11 36 -11 38 33 75 30
26 56 39 79 41 53 4 66 37 67 173 1 114 14 158 65 224 35 44 17 133 -29 149
-15 5 -46 25 -69 44 -35 30 -53 37 -107 43 -36 3 -68 11 -72 16 -11 18 -87 51
-105 46 -11 -3 -19 -1 -19 4 0 5 -11 15 -25 21 -14 6 -25 20 -25 30 0 26 -43
98 -77 129 -31 29 -82 49 -124 49 -21 0 -40 12 -66 40 -21 22 -42 40 -47 40
-13 0 -71 52 -69 62 2 4 0 8 -5 9 -4 0 -19 3 -34 5 -16 3 -28 0 -28 -5 0 -13
-93 -2 -98 11 -2 5 -17 15 -34 24 -28 14 -31 14 -50 -3 -20 -18 -21 -18 -14 5
9 28 -6 29 -67 2 -30 -13 -52 -32 -66 -56 -21 -35 -22 -36 -41 -19 -16 14 -29
16 -69 11 -46 -6 -50 -5 -76 26 -25 29 -27 38 -22 88 4 30 3 60 -1 66 -13 21
-51 34 -96 34 -41 0 -46 3 -46 22 0 22 16 77 33 115 16 35 2 56 -33 48 -35 -8
-36 -5 -45 136 -5 80 -3 99 9 112 9 9 16 23 16 32 0 14 8 16 53 12 108 -11
127 -21 127 -71 0 -39 30 -101 50 -101 23 0 27 44 11 117 -13 62 -13 72 2 103
9 19 21 35 26 35 8 0 64 42 124 95 11 10 17 30 17 60 0 28 4 44 11 42 11 -2
18 7 64 81 11 17 25 32 32 32 6 0 18 6 26 14 7 8 25 16 38 18 19 2 25 11 29
38 8 50 14 56 68 76 26 10 54 23 63 31 24 20 31 16 15 -10 -10 -14 -12 -27 -6
-36 7 -12 15 -10 47 11 21 14 49 29 63 33 41 13 70 36 70 56 0 24 -12 24 -34
0 -17 -19 -18 -19 -37 0 -10 10 -25 19 -33 19 -18 0 -15 42 3 64 29 35 -14 46
-77 21 l-37 -15 25 20 c80 62 73 59 163 57 77 -2 88 0 110 21 14 13 32 22 40
20 11 -2 4 -17 -28 -59 -23 -31 -46 -66 -50 -78 -6 -19 -3 -21 39 -21 36 0 46
-4 46 -16 0 -14 3 -14 15 -4 13 11 18 10 29 -5 20 -28 36 -9 32 38 -2 23 -4
50 -5 60 -1 13 -6 17 -20 12 -29 -9 -43 22 -24 51 8 13 12 28 9 33 -4 5 -2 12
3 15 4 3 11 20 15 37 5 25 2 37 -14 51 -10 10 -17 24 -14 32 3 9 -3 17 -15 21
-29 9 -46 42 -47 90 -1 120 -5 175 -11 175 -5 0 -19 -16 -31 -35 -33 -47 -69
-70 -88 -54 -18 15 -18 46 1 83 19 37 19 43 -3 49 -11 2 -22 17 -25 36 -5 24
-12 31 -31 31 -13 0 -37 3 -55 6 -27 6 -32 3 -41 -22 -5 -16 -15 -37 -20 -46
-6 -10 -10 -26 -10 -36 0 -10 -14 -31 -31 -48 -25 -24 -30 -35 -26 -60 7 -44
-8 -103 -30 -119 -10 -8 -32 -21 -50 -30 -32 -16 -37 -23 -48 -85 -11 -59 -16
-70 -36 -81 -17 -9 -22 -5 -34 25 -13 31 -13 38 5 78 26 58 25 68 -8 68 -22 0
-40 12 -74 50 -27 29 -54 50 -66 50 -18 0 -20 4 -12 31 6 20 5 37 -2 49 -9 14
-7 25 11 54 24 38 139 146 156 146 6 0 23 14 38 30 16 17 37 30 47 30 11 0 38
18 61 40 23 22 43 39 45 37 1 -1 -11 -21 -27 -44 -15 -24 -26 -50 -23 -58 8
-20 16 -19 48 6 26 21 28 21 40 3 11 -15 17 -16 29 -6 16 14 9 60 -14 88 -6 7
-9 20 -6 28 3 8 1 16 -5 18 -25 9 4 26 35 22 25 -4 40 1 70 26 23 20 37 40 37
55 0 13 10 30 26 40 22 14 25 22 21 51 -6 36 1 41 35 23 16 -9 26 -7 47 9 l27
20 0 -37 c0 -20 -4 -39 -10 -43 -6 -4 0 -16 17 -30 24 -21 26 -27 17 -53 -6
-17 -26 -41 -45 -55 -18 -14 -38 -35 -44 -47 -10 -22 -24 -27 -67 -24 -23 2
-59 -33 -49 -48 4 -7 22 -9 45 -5 42 7 50 -1 64 -66 5 -24 60 -70 84 -70 15 0
15 25 1 52 -16 30 -5 31 23 3 l26 -25 16 25 c19 29 20 66 4 111 -9 26 -9 36 1
48 20 23 29 20 36 -14 4 -16 10 -32 15 -35 4 -3 30 15 56 40 l48 44 -22 24
c-12 13 -22 27 -22 31 0 4 -10 20 -22 37 l-22 30 27 25 c31 28 37 83 12 104
-8 7 -15 21 -15 31 0 10 -9 21 -20 24 -15 5 -19 12 -15 25 3 11 1 28 -5 40 -6
12 -7 20 -1 20 13 0 25 40 14 51 -12 12 -83 15 -113 5 -22 -8 -23 -7 -11 8 12
14 11 16 -8 16 -35 0 -73 -24 -130 -85 -37 -39 -52 -62 -48 -75 3 -11 -1 -21
-9 -24 -21 -8 -17 -42 8 -58 17 -12 19 -18 10 -29 -57 -70 -76 -89 -87 -89 -8
0 -17 -9 -20 -20 -3 -11 -11 -20 -16 -20 -14 0 -11 12 11 48 33 54 21 87 -15
40 -16 -23 -16 -22 -1 3 11 19 12 29 3 38 -8 8 -5 17 10 33 11 13 28 46 38 73
20 54 60 105 83 105 20 0 92 59 92 75 0 8 -10 17 -21 20 -20 7 -20 9 13 39 18
17 47 42 63 56 l30 25 -21 -25 c-48 -57 -33 -73 79 -86 48 -5 61 -3 78 12 60
54 44 87 -37 78 -45 -6 -55 -4 -60 10 -8 21 24 48 46 39 8 -3 31 -7 50 -8 19
-1 45 -5 56 -9 30 -9 74 10 74 32 0 16 68 82 85 82 15 0 75 54 75 67 0 7 7 16
16 20 8 3 13 11 10 18 -3 9 8 15 31 20 20 3 52 20 72 37 20 16 63 44 96 63 33
18 60 39 60 46 0 8 10 15 22 17 13 2 42 21 65 43 34 32 65 47 153 75 185 60
419 110 620 133 123 14 491 12 625 -4z m-1979 -518 c-1 -12 -15 -9 -19 4 -3 6
1 10 8 8 6 -3 11 -8 11 -12z m-48 -27 c-5 -18 -70 -56 -79 -47 -3 3 74 64 83
67 0 0 -1 -9 -4 -20z m3514 -62 c4 -7 7 -22 8 -32 0 -11 6 -21 14 -24 10 -3
12 0 8 12 -4 9 -3 16 1 16 9 -1 62 -47 62 -54 0 -9 -54 -3 -67 6 -15 12 -29
-10 -15 -24 13 -13 5 -38 -12 -38 -7 0 -13 21 -14 58 -1 31 -5 65 -8 75 -6 20
11 23 23 5z m-157 -64 c0 -14 -3 -14 -15 -4 -8 7 -15 14 -15 16 0 2 7 4 15 4
8 0 15 -7 15 -16z m-3586 -224 c-9 -16 -20 -30 -25 -30 -5 0 -9 -6 -9 -14 0
-8 -4 -18 -10 -21 -15 -9 0 26 27 63 30 40 36 41 17 2z m-174 7 c0 -2 -17 -19
-37 -38 l-38 -34 34 38 c33 34 41 42 41 34z m290 -17 c0 -5 -7 -10 -15 -10 -8
0 -15 5 -15 10 0 6 7 10 15 10 8 0 15 -4 15 -10z m3160 -40 c13 -8 13 -10 -2
-10 -9 0 -20 5 -23 10 -8 13 5 13 25 0z m144 -5 c3 -8 1 -15 -3 -15 -5 0 -11
7 -15 15 -3 8 -1 15 3 15 5 0 11 -7 15 -15z m-3741 -165 c-18 -36 -73 -70 -73
-45 0 8 6 15 14 15 20 0 64 62 48 68 -9 3 -9 9 0 25 11 22 12 22 19 -6 5 -18
2 -38 -8 -57z m3718 -7 c13 -16 12 -17 -3 -4 -17 13 -22 21 -14 21 2 0 10 -8
17 -17z m-1145 -247 c6 -15 -42 -106 -56 -106 -31 0 -8 -134 28 -158 20 -13
31 -13 76 -2 30 7 66 10 81 6 26 -7 27 -8 10 -26 -14 -16 -26 -18 -55 -14 -32
5 -42 2 -73 -26 -41 -35 -41 -50 -2 -42 22 4 25 1 25 -22 0 -28 -9 -33 -28
-14 -20 20 -46 -14 -44 -60 1 -29 -4 -44 -22 -61 -15 -14 -26 -19 -31 -12 -10
17 -45 13 -82 -10 -30 -19 -38 -20 -59 -9 -17 10 -30 10 -47 3 -17 -8 -27 -7
-40 2 -25 18 -21 25 12 19 23 -5 29 -2 34 15 3 12 11 19 19 16 7 -2 31 6 53
19 38 22 40 25 41 75 1 41 5 55 22 67 27 19 28 55 2 79 -14 13 -20 31 -20 62
0 38 6 50 40 85 27 28 40 50 40 69 0 15 3 34 6 43 8 20 63 21 70 2z m312 -187
c7 -12 11 -24 8 -27 -6 -6 -35 27 -36 41 0 14 15 7 28 -14z m-95 -23 c18 -14
23 -41 8 -51 -13 -8 -41 23 -41 46 0 22 8 24 33 5z m-463 -136 c0 -5 -4 -10
-10 -10 -5 0 -10 5 -10 10 0 6 5 10 10 10 6 0 10 -4 10 -10z m2516 -95 c20
-48 18 -69 -12 -116 -29 -47 -42 -47 -18 0 11 21 15 51 12 91 -1 33 -2 60 0
60 2 0 10 -16 18 -35z m-4563 -112 c-7 -2 -19 -2 -25 0 -7 3 -2 5 12 5 14 0
19 -2 13 -5z m4057 -218 c7 -8 8 -15 2 -15 -5 0 -15 7 -22 15 -7 8 -8 15 -2
15 5 0 15 -7 22 -15z m-4714 -22 c7 -10 14 -28 14 -39 0 -30 -49 -40 -70 -16
-13 15 -19 16 -40 5 -32 -16 -50 -16 -50 0 0 13 93 65 119 66 8 1 20 -7 27
-16z m3850 -63 c23 0 18 -51 -6 -57 -11 -3 -20 -9 -20 -13 0 -5 -3 -15 -6 -23
-3 -9 9 -31 28 -54 19 -21 40 -58 48 -83 7 -25 20 -52 27 -61 8 -10 20 -40 27
-67 l14 -50 -32 -5 c-37 -6 -111 25 -120 49 -8 20 3 82 15 90 6 3 -7 22 -26
42 -20 20 -49 63 -65 94 l-29 57 21 27 c27 33 79 66 96 59 8 -3 20 -5 28 -5z
m615 -17 c-8 -15 -10 -15 -11 -2 0 17 10 32 18 25 2 -3 -1 -13 -7 -23z m-1027
-10 c-4 -16 -11 -33 -16 -40 -7 -9 -1 -18 19 -30 110 -70 140 -106 114 -137
-17 -20 -79 -18 -130 5 -52 23 -110 25 -137 4 -10 -8 -36 -15 -56 -15 -52 0
-76 35 -58 83 25 64 50 116 59 122 15 8 61 -5 61 -19 0 -6 8 -21 18 -33 17
-22 18 -22 55 -6 43 20 48 33 12 33 -36 0 -32 27 8 44 50 22 58 20 51 -11z
m-3332 -25 c12 -20 9 -28 -11 -28 -11 0 -25 -12 -33 -30 -13 -27 -15 -28 -29
-12 -17 21 -22 84 -7 93 14 9 70 -7 80 -23z m-118 13 c4 -5 -5 -18 -19 -28
-15 -10 -32 -40 -42 -72 -20 -59 -50 -86 -40 -35 17 92 78 173 101 135z m4104
-21 c4 -25 -13 -41 -35 -33 -16 6 -17 35 -1 51 17 17 32 10 36 -18z m-3905
-81 c-5 -5 -22 -5 -38 0 l-30 8 35 10 c35 10 52 1 33 -18z m-118 -54 c-41 -25
-65 -32 -65 -17 0 12 61 41 85 41 14 0 9 -7 -20 -24z m3125 -75 c0 -5 -7 -10
-15 -10 -8 0 -15 5 -15 10 0 6 7 10 15 10 8 0 15 -4 15 -10z m707 -443 c40
-58 109 -93 147 -75 25 11 29 9 49 -14 28 -33 105 -48 204 -41 l72 6 46 -47
c26 -25 52 -46 58 -46 7 0 6 -4 -3 -10 -13 -8 -11 -14 13 -37 27 -27 29 -27
55 -12 l28 16 12 -76 c11 -72 42 -175 103 -338 12 -32 39 -27 73 13 31 37 45
85 46 151 0 39 12 61 43 80 20 12 147 162 147 173 0 5 18 13 40 16 22 4 43 11
46 15 11 18 44 9 44 -11 0 -11 11 -30 25 -42 14 -12 25 -27 25 -34 0 -6 7 -17
16 -25 10 -8 14 -25 12 -48 -3 -42 18 -52 58 -26 28 18 26 21 47 -73 13 -56 9
-144 -8 -160 -2 -2 7 -21 20 -41 14 -19 25 -46 25 -59 0 -29 27 -94 43 -104 9
-6 9 -8 -1 -8 -7 0 -37 22 -65 49 -51 48 -105 70 -114 45 -2 -6 15 -33 37 -60
49 -59 67 -113 45 -130 -8 -6 -15 -14 -15 -17 0 -3 -12 -19 -26 -34 -204 -216
-415 -571 -506 -848 l-43 -130 -60 32 c-352 189 -759 162 -1346 -87 -79 -34
-149 -64 -156 -67 -6 -2 -17 5 -23 17 -10 18 -8 24 15 42 14 11 53 51 85 89
44 51 62 80 66 110 6 35 12 44 40 55 44 18 56 45 52 108 -3 49 -1 53 37 87 22
19 57 46 78 58 21 13 45 34 54 47 23 35 34 153 18 180 -8 12 -15 50 -16 85 -4
91 10 110 253 346 62 60 138 199 138 252 0 25 -4 32 -15 28 -8 -4 -53 -15
-101 -27 -81 -19 -88 -19 -106 -4 -10 10 -18 26 -18 37 0 10 -26 45 -58 76
-34 32 -62 69 -66 86 -4 17 -18 41 -32 55 -14 15 -28 47 -33 75 -5 27 -18 56
-28 65 -10 8 -23 29 -29 45 -7 17 -22 54 -35 83 -20 45 -21 54 -9 62 19 12 34
-1 72 -69 18 -31 41 -63 51 -71 10 -8 21 -34 24 -57 4 -30 15 -51 39 -74 19
-18 34 -38 34 -44 0 -6 11 -26 24 -44 14 -19 26 -53 31 -86 6 -50 24 -85 44
-85 4 0 16 7 27 15 10 8 29 15 41 15 30 0 164 68 181 91 6 10 26 21 44 24 36
8 101 67 128 116 44 80 44 80 34 97 -6 9 -28 26 -50 38 -31 16 -40 27 -42 52
-2 18 -6 32 -10 32 -4 0 -20 -16 -37 -35 -22 -24 -40 -35 -65 -37 -31 -3 -35
0 -40 27 -4 21 -11 29 -22 27 -10 -1 -19 7 -23 20 -4 13 -15 32 -25 43 -27 30
-42 65 -36 81 10 27 42 14 73 -29z m-4080 -584 c7 -18 19 -33 26 -33 8 0 23
-11 35 -25 12 -14 30 -25 40 -25 10 0 27 -7 38 -15 27 -21 42 -18 46 8 5 35
21 25 51 -33 30 -60 36 -124 12 -134 -8 -3 -15 -12 -15 -19 0 -8 -6 -20 -14
-26 -22 -18 -28 -82 -10 -109 12 -18 13 -27 4 -37 -17 -21 -3 -54 49 -111 51
-56 142 -178 153 -206 4 -10 38 -38 76 -62 102 -67 126 -93 146 -161 45 -149
54 -183 66 -235 7 -29 23 -77 35 -105 12 -27 25 -72 29 -100 l6 -50 -65 65
c-67 67 -99 104 -240 283 -174 223 -342 544 -435 832 -36 112 -90 322 -90 349
0 19 0 19 21 0 12 -10 28 -34 36 -51z m5576 56 c11 -7 36 -28 54 -47 l33 -34
-22 -87 c-12 -47 -24 -77 -26 -66 -2 11 -19 34 -38 52 -19 18 -34 39 -34 48 0
8 -5 24 -12 34 -8 14 -8 29 3 65 15 52 13 50 42 35z m172 -246 c-31 -168 -64
-271 -208 -638 -177 -453 -297 -734 -341 -800 -18 -27 -38 -68 -44 -91 -7 -22
-23 -51 -38 -65 -23 -21 -35 -24 -113 -25 -86 0 -89 -1 -197 -56 -138 -71
-231 -101 -312 -102 -61 -1 -65 1 -98 36 -44 49 -44 77 0 103 19 11 99 58 178
103 130 76 139 83 99 77 -93 -13 -335 -129 -520 -249 -176 -114 -271 -124
-358 -35 l-40 40 -69 -27 c-98 -39 -263 -133 -353 -201 -84 -63 -231 -201
-293 -275 -38 -45 -39 -49 -24 -70 20 -28 20 -73 1 -129 -23 -64 -41 -79 -93
-79 -25 0 -60 5 -77 11 -28 10 -37 9 -78 -15 -81 -48 -150 -36 -246 42 -26 21
-46 32 -48 25 -3 -7 -17 -30 -34 -52 -31 -43 -21 -55 17 -20 l23 21 36 -35
c65 -63 96 -72 222 -69 131 4 211 -14 243 -55 29 -37 25 -59 -11 -72 -59 -21
-135 -6 -181 36 -16 14 -21 12 -64 -26 -26 -22 -65 -46 -87 -52 -34 -9 -45 -7
-88 14 -44 22 -49 22 -44 6 5 -16 -1 -15 -54 8 -66 28 -62 21 -77 158 -9 87
-60 261 -97 327 l-32 58 30 30 c20 20 46 33 79 39 74 14 128 -6 266 -95 38
-24 89 -52 112 -60 59 -22 175 -23 213 -1 l30 16 -57 1 c-77 0 -148 29 -238
96 -96 72 -145 100 -197 113 -41 11 -42 12 -57 81 -9 38 -16 91 -17 117 0 36
-3 43 -9 28 -14 -32 -11 -107 5 -161 8 -27 15 -50 15 -51 0 -1 -20 -5 -45 -9
-59 -8 -105 -40 -130 -89 -11 -22 -21 -42 -22 -44 -1 -2 -23 9 -49 24 -101 59
-120 220 -45 380 39 85 109 188 178 265 l58 64 -50 -34 c-73 -51 -178 -161
-221 -231 -33 -52 -47 -65 -106 -95 -37 -19 -68 -32 -68 -29 0 2 13 26 30 51
27 44 48 109 38 119 -2 2 -21 -19 -42 -48 -46 -64 -104 -108 -176 -137 -44
-18 -83 -23 -197 -27 -140 -5 -144 -5 -198 21 l-55 27 -32 -24 c-53 -40 -130
-75 -194 -88 -69 -14 -157 0 -197 31 -24 19 -24 19 -48 -7 -39 -42 -110 -83
-145 -83 -20 0 -43 9 -59 23 -23 20 -26 30 -29 117 -3 72 -14 130 -45 240 -42
148 -63 321 -47 385 7 27 8 26 104 -72 53 -54 136 -131 183 -170 66 -55 88
-79 93 -104 10 -50 7 -92 -8 -121 -13 -25 -13 -28 2 -28 9 0 42 7 72 16 30 8
98 19 150 24 163 15 265 55 551 213 263 145 337 171 470 165 79 -4 97 -8 166
-44 67 -33 79 -43 83 -69 5 -28 9 -31 70 -40 39 -7 60 -14 52 -19 -27 -16 -89
-176 -68 -176 2 0 31 26 63 58 35 35 94 78 148 107 108 60 191 139 228 216 22
47 87 257 87 283 0 5 -12 -13 -26 -40 -41 -77 -99 -149 -167 -205 -78 -65
-149 -99 -217 -102 l-52 -2 -29 142 c-35 171 -81 321 -109 351 -27 28 -66 38
-103 24 l-29 -11 4 53 c7 82 50 160 137 247 96 95 134 114 226 112 75 -1 240
-35 283 -57 49 -26 79 -69 151 -218 65 -134 70 -149 60 -175 -22 -52 -16 -209
10 -293 35 -113 132 -300 155 -300 6 0 111 40 235 89 260 103 386 143 529 171
312 61 574 19 781 -123 l43 -30 -6 -63 c-4 -35 -5 -64 -2 -64 2 0 14 30 26 68
120 365 344 761 708 1249 83 111 148 203 146 206 -3 2 3 22 13 42 15 32 19 35
21 17 2 -12 -4 -61 -13 -109z m-2175 -228 c0 -18 -33 -65 -45 -65 -15 0 -22
50 -8 63 8 8 53 9 53 2z m-2250 -2334 c336 -70 799 -213 1026 -316 42 -19 117
-58 167 -86 90 -50 606 -380 698 -446 l46 -33 -24 -92 c-30 -111 -43 -137 -84
-172 -72 -61 -153 -87 -267 -87 -163 0 -317 80 -494 255 l-67 66 -72 0 c-235
0 -491 164 -708 455 -106 141 -167 187 -310 235 -49 17 -102 30 -117 29 -23 0
-16 -4 26 -18 64 -20 163 -71 202 -104 30 -25 49 -102 107 -452 59 -358 80
-554 82 -773 1 -84 4 -150 7 -148 9 10 61 237 89 392 l28 159 3 -245 c3 -259
-9 -466 -33 -565 -38 -158 2 -345 127 -587 34 -67 62 -107 88 -128 47 -37 80
-88 80 -122 0 -33 -49 -56 -88 -42 -24 8 -28 6 -47 -31 -26 -49 -102 -108
-175 -136 -111 -42 -185 -49 -508 -49 -304 1 -307 1 -272 19 36 19 117 40 329
86 209 45 286 84 337 171 34 58 37 140 9 224 -42 126 -168 405 -241 531 -141
244 -258 511 -359 814 -64 194 -227 750 -255 870 -26 114 -34 224 -18 255 19
34 84 68 165 85 103 22 388 14 523 -14z m2111 -1238 c57 -102 225 -271 323
-328 58 -33 66 -41 51 -50 -9 -5 -65 -41 -123 -80 -59 -38 -143 -88 -187 -112
-163 -87 19 -37 225 62 264 126 402 159 555 131 139 -25 234 -70 380 -181 96
-73 200 -127 328 -170 175 -59 288 -78 472 -79 l160 -1 24 -49 c20 -41 24 -65
26 -155 2 -93 6 -119 38 -212 31 -89 37 -119 37 -190 0 -68 -5 -94 -25 -136
-29 -64 -96 -137 -186 -204 l-67 -50 -118 3 -118 3 -23 34 c-13 19 -23 38 -23
42 0 4 27 18 60 30 102 37 206 169 229 292 25 135 -68 287 -253 411 -141 95
-281 151 -627 251 -494 143 -652 139 -1004 -28 -132 -62 -158 -71 -221 -75
-56 -3 -86 0 -136 17 -130 43 -321 180 -508 362 l-95 93 110 6 c156 10 260 56
378 168 77 74 171 223 202 322 25 79 26 79 50 12 12 -33 42 -96 66 -139z"/>
<path d="M7220 14233 c-8 -3 -27 -14 -42 -25 -16 -11 -33 -16 -38 -13 -14 9
-60 -22 -60 -39 0 -8 -9 -16 -20 -19 -16 -4 -20 -14 -20 -48 0 -43 -11 -47
-17 -6 -8 53 -28 65 -39 22 -3 -13 -13 -30 -22 -37 -14 -11 -15 -9 -9 19 9 47
-8 49 -123 7 -8 -3 -22 -18 -31 -33 -10 -17 -28 -30 -45 -34 -16 -3 -47 -21
-69 -41 -33 -29 -37 -37 -25 -45 12 -8 10 -15 -15 -41 -16 -16 -39 -30 -51
-30 -34 0 -111 -36 -122 -57 -5 -10 -6 -27 -1 -38 13 -33 10 -45 -10 -45 -22
0 -27 -11 -26 -60 l0 -35 48 3 c63 5 101 -18 93 -56 -3 -15 -8 -47 -11 -72 -8
-74 -15 -98 -42 -146 -17 -31 -22 -49 -15 -56 6 -6 12 -6 16 1 12 19 24 12 24
-14 0 -19 -6 -25 -23 -25 -25 0 -55 -38 -55 -70 0 -27 40 -27 47 0 7 28 23 25
23 -3 0 -23 -27 -56 -46 -58 -16 -1 -68 -71 -67 -90 1 -10 -2 -21 -8 -24 -13
-9 -12 -115 2 -115 8 0 8 -4 -1 -15 -8 -10 -9 -28 -4 -57 4 -24 8 -53 10 -66
4 -33 24 -53 45 -47 14 5 22 -1 29 -19 17 -45 46 -33 76 29 14 31 41 76 60
101 19 24 34 50 34 57 0 28 33 56 86 73 40 12 74 33 113 69 44 41 71 56 127
73 42 13 91 37 120 59 l49 37 -36 11 c-33 9 -34 12 -23 34 l12 23 11 -21 c7
-13 21 -21 36 -21 22 0 25 4 25 39 0 27 -8 49 -25 69 -14 17 -25 34 -25 38 0
5 7 -2 16 -14 19 -27 30 -28 44 -1 9 15 8 24 -1 35 -9 11 -8 14 9 14 23 0 47
24 38 39 -4 5 3 13 15 16 17 6 20 13 15 36 -3 15 -1 31 4 34 14 8 13 58 -1 72
-13 13 -5 43 11 43 6 0 14 -9 18 -21 8 -20 9 -19 20 6 8 17 9 32 4 39 -14 17
-24 66 -13 66 5 0 16 20 24 45 9 24 30 66 49 92 18 26 32 51 30 56 -1 4 3 7 9
7 18 0 71 59 67 76 -5 28 -40 34 -85 13 -23 -11 -45 -24 -48 -29 -3 -6 -14
-10 -23 -9 -11 0 -12 2 -4 6 7 3 19 18 27 34 14 26 14 29 0 29 -9 0 -23 -7
-31 -15 -20 -19 -41 -21 -25 -2 14 18 4 27 -33 28 -17 1 0 5 38 10 77 9 108
28 86 53 -7 9 -21 16 -31 16 -12 0 -16 5 -13 15 4 9 0 15 -9 15 -8 0 -14 7
-13 17 0 9 -9 19 -24 23 -54 15 -76 18 -90 13z"/>
<path d="M8518 14070 c-6 -37 13 -66 36 -57 20 8 21 31 1 47 -8 7 -15 19 -15
26 0 27 -18 14 -22 -16z"/>
<path d="M8620 14081 c0 -24 18 -37 32 -23 8 8 7 16 -2 27 -17 21 -30 19 -30
-4z"/>
<path d="M8598 14031 c3 -22 -1 -29 -18 -34 -12 -3 -20 -11 -18 -18 7 -22 29
-22 35 0 3 12 12 21 19 21 17 0 18 32 2 48 -19 19 -25 14 -20 -17z"/>
<path d="M8447 14015 c-5 -12 -11 -14 -26 -6 -14 8 -22 7 -31 -4 -7 -9 -11
-17 -9 -18 2 -1 18 -12 36 -25 l32 -22 17 31 c14 28 14 33 1 46 -12 13 -15 13
-20 -2z"/>
<path d="M8523 13982 c1 -14 5 -18 11 -12 7 7 6 14 -1 21 -9 9 -12 7 -10 -9z"/>
<path d="M7982 13928 c-7 -7 -12 -18 -12 -26 0 -9 -6 -12 -15 -8 -9 3 -18 -1
-21 -8 -4 -10 -16 -13 -40 -9 -40 7 -52 -11 -35 -57 7 -22 7 -29 -1 -24 -6 4
-9 1 -7 -5 3 -7 7 -11 11 -9 13 7 48 -37 54 -67 3 -18 19 -45 34 -60 32 -31
31 -33 51 73 13 67 26 71 38 10 5 -26 12 -33 31 -33 42 0 33 29 -30 95 -33 35
-60 67 -60 72 0 13 17 9 23 -6 7 -17 59 -30 86 -21 18 6 39 60 28 72 -11 11
-77 21 -83 12 -3 -5 -13 -5 -23 1 -12 6 -22 5 -29 -2z m-42 -158 c0 -5 -5 -10
-11 -10 -5 0 -7 5 -4 10 3 6 8 10 11 10 2 0 4 -4 4 -10z"/>
<path d="M8860 13726 c-5 -13 -19 -27 -32 -31 -35 -11 -68 -46 -68 -72 0 -13
-3 -23 -7 -23 -5 0 -8 -57 -8 -126 l0 -126 43 -30 c42 -29 112 -49 112 -31 0
5 -16 24 -35 43 -44 43 -56 87 -46 165 11 79 35 132 78 172 35 31 36 33 19 58
-21 32 -44 32 -56 1z"/>
<path d="M7300 13530 c0 -5 5 -10 10 -10 6 0 10 5 10 10 0 6 -4 10 -10 10 -5
0 -10 -4 -10 -10z"/>
<path d="M9062 13499 c2 -7 10 -15 17 -17 8 -3 12 1 9 9 -2 7 -10 15 -17 17
-8 3 -12 -1 -9 -9z"/>
<path d="M9240 13490 c0 -5 5 -10 11 -10 5 0 7 5 4 10 -3 6 -8 10 -11 10 -2 0
-4 -4 -4 -10z"/>
<path d="M5960 13200 c-9 -6 -10 -10 -3 -10 6 0 15 5 18 10 8 12 4 12 -15 0z"/>
<path d="M8737 13204 c-14 -15 -6 -34 14 -34 14 0 19 5 17 17 -3 18 -20 27
-31 17z"/>
<path d="M5960 13130 c-11 -11 -20 -24 -20 -30 0 -18 39 -11 50 9 22 43 4 55
-30 21z"/>
<path d="M6010 13119 c0 -5 5 -7 10 -4 6 3 10 8 10 11 0 2 -4 4 -10 4 -5 0
-10 -5 -10 -11z"/>
<path d="M7088 12978 l-22 -22 24 -6 25 -6 -24 -13 c-22 -12 -22 -14 -7 -23
10 -6 15 -16 11 -27 -4 -13 5 -20 39 -30 52 -15 65 -12 130 30 46 29 48 32 43
66 -4 20 -10 40 -14 44 -11 11 -127 -8 -131 -21 -6 -17 -19 -11 -25 10 -7 26
-22 25 -49 -2z"/>
<path d="M5790 12870 c0 -5 5 -10 10 -10 6 0 10 5 10 10 0 6 -4 10 -10 10 -5
0 -10 -4 -10 -10z"/>
<path d="M5649 12834 c-11 -14 -10 -15 11 -12 13 1 25 9 28 16 5 17 -23 15
-39 -4z"/>
<path d="M5717 12823 c-4 -3 -7 -13 -7 -21 0 -12 3 -12 15 -2 8 7 15 16 15 21
0 11 -14 12 -23 2z"/>
<path d="M7488 12566 c-12 -16 -15 -34 -11 -64 3 -23 10 -42 14 -42 5 0 9 -9
9 -20 0 -11 7 -20 15 -20 9 0 20 -10 24 -22 7 -18 4 -27 -12 -40 -12 -9 -19
-20 -15 -24 4 -3 2 -16 -3 -27 -9 -16 -8 -22 4 -29 14 -7 12 -12 -9 -35 -13
-14 -23 -28 -21 -30 2 -2 30 3 63 12 32 8 67 15 79 15 32 0 42 12 50 57 6 36
4 42 -14 48 -12 3 -24 17 -27 30 -3 13 -14 31 -25 41 -10 9 -19 23 -19 29 0 7
-7 18 -15 25 -9 7 -14 18 -12 24 18 47 17 55 -3 61 -13 4 -19 12 -16 21 9 24
-37 16 -56 -10z"/>
<path d="M5585 12519 c-9 -14 -2 -20 14 -10 8 6 9 11 3 15 -6 3 -14 1 -17 -5z"/>
<path d="M7413 12432 c-10 -11 -26 -22 -37 -26 -14 -5 -17 -13 -12 -37 3 -17
0 -38 -6 -49 -21 -33 3 -46 52 -30 51 17 56 23 64 89 5 40 4 56 -6 62 -20 13
-36 11 -55 -9z"/>
<path d="M5478 12363 c7 -3 16 -2 19 1 4 3 -2 6 -13 5 -11 0 -14 -3 -6 -6z"/>
<path d="M5886 12206 c7 -19 44 -28 44 -11 0 7 -7 16 -16 19 -25 10 -34 7 -28
-8z"/>
<path d="M7881 11907 c-12 -15 -5 -47 9 -47 5 0 12 9 15 21 9 27 -8 45 -24 26z"/>
<path d="M7874 11837 c-10 -27 0 -72 16 -72 11 0 15 11 15 39 0 40 -20 61 -31
33z"/>
<path d="M8350 11621 c0 -16 49 -26 63 -12 8 8 7 11 -3 11 -8 0 -25 3 -37 6
-14 4 -23 2 -23 -5z"/>
<path d="M8632 11619 c-24 -9 -22 -29 2 -29 17 0 40 27 29 33 -4 3 -18 1 -31
-4z"/>
<path d="M5174 11199 c-18 -5 -35 -16 -38 -25 -5 -14 -1 -16 25 -10 47 9 137
-22 162 -56 16 -22 29 -28 58 -28 39 0 52 9 41 27 -9 14 -159 88 -192 95 -14
3 -39 2 -56 -3z"/>
<path d="M5463 11070 c4 -15 0 -20 -13 -20 -31 0 -33 -19 -3 -26 15 -3 33 -7
40 -9 17 -6 113 18 113 28 0 16 -67 47 -104 47 -33 0 -38 -3 -33 -20z"/>
<path d="M5317 11043 c-9 -8 12 -33 29 -33 20 0 28 21 13 31 -17 10 -33 11
-42 2z"/>
<path d="M5630 11025 c0 -8 9 -15 19 -15 26 0 35 16 15 24 -25 10 -34 7 -34
-9z"/>
<path d="M5800 10771 c0 -6 5 -13 10 -16 6 -3 10 1 10 9 0 9 -4 16 -10 16 -5
0 -10 -4 -10 -9z"/>
<path d="M8140 12690 c0 -5 5 -10 11 -10 5 0 7 5 4 10 -3 6 -8 10 -11 10 -2 0
-4 -4 -4 -10z"/>
<path d="M8115 12549 c-4 -6 -5 -13 -2 -16 7 -7 27 6 27 18 0 12 -17 12 -25
-2z"/>
<path d="M10065 10717 c-16 -81 15 -126 50 -73 16 24 16 28 -2 63 -24 49 -40
52 -48 10z"/>
<path d="M10535 10490 c3 -5 8 -10 11 -10 2 0 4 5 4 10 0 6 -5 10 -11 10 -5 0
-7 -4 -4 -10z"/>
<path d="M9062 9976 c-19 -26 -50 -53 -76 -66 -58 -28 -70 -44 -69 -92 2 -28
-5 -51 -22 -77 -29 -42 -34 -111 -9 -135 19 -19 17 -19 57 -3 33 14 31 11 148
263 28 60 36 105 23 138 -9 24 -18 20 -52 -28z"/>
<path d="M6223 7510 c3 -8 22 -53 42 -100 122 -284 217 -663 241 -965 7 -84 8
-87 17 -50 5 22 6 119 4 215 -6 195 -22 287 -81 465 -40 122 -161 373 -202
420 -14 17 -23 23 -21 15z"/>
<path d="M10560 5915 c-14 -7 -55 -16 -92 -20 -75 -8 -88 -20 -32 -31 51 -9
114 1 137 24 27 27 19 44 -13 27z"/>
<path d="M3530 4545 l0 -255 785 0 785 0 0 255 0 255 -785 0 -785 0 0 -255z"/>
<path d="M5240 4545 l0 -255 260 0 260 0 0 255 0 255 -260 0 -260 0 0 -255z"/>
<path d="M5900 4545 l0 -255 780 0 780 0 0 255 0 255 -780 0 -780 0 0 -255z"/>
<path d="M7941 4763 c-6 -21 -33 -128 -60 -239 -28 -110 -53 -208 -57 -217 -6
-16 32 -17 505 -17 281 0 511 3 511 8 0 4 -27 118 -61 255 l-62 247 -383 0
-383 0 -10 -37z"/>
<path d="M9220 4545 l0 -255 781 0 782 0 -6 103 c-3 56 -12 122 -21 147 -37
104 -146 206 -255 240 -60 19 -93 20 -672 20 l-609 0 0 -255z"/>
<path d="M11209 4786 c-104 -28 -207 -114 -256 -214 -24 -50 -28 -71 -32 -169
l-3 -113 781 0 781 0 0 255 0 255 -612 -1 c-453 0 -625 -4 -659 -13z"/>
<path d="M7785 4148 c-10 -28 -255 -1021 -255 -1034 0 -12 43 -14 253 -14
l253 0 28 115 28 115 242 0 241 0 18 -77 c9 -43 22 -95 28 -115 l10 -38 254 0
c198 0 255 3 255 13 0 6 -23 98 -50 202 -28 105 -86 334 -131 510 -44 175 -83
323 -85 327 -6 9 -504 11 -504 3 0 -6 88 -359 96 -387 5 -17 -6 -18 -131 -18
l-135 0 7 28 c49 196 89 373 85 377 -3 3 -117 5 -254 5 -190 0 -250 -3 -253
-12z"/>
<path d="M4060 3625 l0 -525 255 0 255 0 0 525 0 525 -255 0 -255 0 0 -525z"/>
<path d="M5240 3625 l0 -525 260 0 260 0 0 525 0 525 -260 0 -260 0 0 -525z"/>
<path d="M6420 3625 l0 -525 255 0 255 0 0 525 0 525 -255 0 -255 0 0 -525z"/>
<path d="M9220 3625 l0 -525 255 0 255 0 0 525 0 525 -255 0 -255 0 0 -525z"/>
<path d="M10270 3625 l0 -525 255 0 255 0 0 525 0 525 -255 0 -255 0 0 -525z"/>
<path d="M10923 4090 c13 -149 141 -290 296 -326 41 -10 150 -14 404 -14 l347
0 0 -70 0 -70 -525 0 -525 0 0 -255 0 -255 608 0 c669 0 667 0 764 62 65 41
115 99 152 177 l31 66 0 220 0 220 -32 67 c-41 88 -113 160 -201 201 l-67 32
-629 3 -629 3 6 -61z"/>
<path d="M5530 1776 c0 -7 263 -153 333 -184 4 -2 7 39 7 92 l0 96 -170 0
c-93 0 -170 -2 -170 -4z"/>
<path d="M10150 1684 l0 -96 78 42 c42 23 119 65 170 92 50 27 92 52 92 54 0
2 -76 4 -170 4 l-170 0 0 -96z"/>
</g>
</svg>
