<svg id="Ñëîé_3" data-name="Ñëîé 3" xmlns="http://www.w3.org/2000/svg" viewBox="0 0 2000 2000"><defs><style>.cls-1{fill:#fff;}.cls-2{fill:none;}.cls-3{font-size:190px;font-family:ComicSansMS, Comic Sans MS;}</style></defs><rect class="cls-1" width="2000" height="2000"/><path d="M1264.46,980.1c-9-24.39,18-55.42,42.82-117.48s22.53-177.33-45.07-248.27c-64.27-67.43-122.48-86.77-248.09-88.51v-.15c-3.41,0-6.72,0-10,0s-6.63,0-10,0v.15C868.43,527.58,810.22,546.92,746,614.35c-67.61,70.94-69.86,186.2-45.07,248.27s51.83,93.09,42.81,117.48S644.55,1110.88,669.34,1255s142,226.1,142,226.1,58.91,21.43,189.5,22.13v0h6.55v0c130.59-.7,189.5-22.13,189.5-22.13s117.18-82,142-226.1S1273.48,1004.48,1264.46,980.1ZM1190.1,787.25c-2.25,95.32-78.87,104.18-78.87,104.18-18.8-12.94-83.08-16.63-103.87-17.5v-.23l-3.28.11-3.27-.11v.23c-20.79.87-85.07,4.56-103.87,17.5,0,0-76.62-8.86-78.87-104.18S883.81,663,915,656.47c24.91-5.25,70.86-6.36,89.11-6.59,18.25.23,64.21,1.34,89.12,6.59C1124.36,663,1192.35,691.93,1190.1,787.25Z" transform="translate(-11.6 5.12)"/><path class="cls-1" d="M849.44,962c14.31-.15,27.84-13.64,25.76-27.8-2.7-18.38-37.89-40.5-53.72-25.73C801.55,927.07,827.17,962.23,849.44,962Z" transform="translate(-11.6 5.12)"/><path class="cls-1" d="M1236,876.33c-3.13,11.09-6.57,22.7-14.78,30.78s-22.82,10.88-31,2.8c-7.55-7.43-6.14-20.71.44-29s16.88-12.69,26.93-16.06C1232.05,860,1240.7,859.81,1236,876.33Z" transform="translate(-11.6 5.12)"/><path class="cls-1" d="M905,1062.29c5.08,22.42,21.85,40.88,41.67,52.52s42.56,17.24,65.17,21.37c25.62,4.68,52.19,7.63,77.56,1.7s49.54-22.14,59.11-46.36c11.79-29.88-1.55-65.3-25.16-87.07-28.47-26.24-82.43-47.86-125.6-46.15C948.21,960.26,892.1,1005.35,905,1062.29Z" transform="translate(-11.6 5.12)"/><path class="cls-1" d="M808.92,749.57S788.23,841.19,853.25,884C853.25,884,764.58,842.67,808.92,749.57Z" transform="translate(-11.6 5.12)"/><path class="cls-1" d="M762,986c9.8-36.07-6-73.71-22.73-107.16-16.41-32.91-34.08-67.23-30.72-105.13-11.41,40.37-5.92,67.82,12.85,105.46C738.33,913.08,760.93,946.87,762,986Z" transform="translate(-11.6 5.12)"/><path class="cls-1" d="M1265.54,643.17c17.32,20.27,29.23,45.06,36.64,70.93,4,12.92,6,26.36,7.46,39.83l.58,10.15c.08,1.69.22,3.38.25,5.08l-.09,5.08-.23,10.17c-.13,3.39-.61,6.76-.9,10.14s-.65,6.76-1.13,10.09l-1.62,9.91c-1,6.62-2.52,13.16-3.89,19.71a329.28,329.28,0,0,1-11.13,38.61,283.83,283.83,0,0,1-15.79,36.89c-3.21,5.88-6.4,11.75-10.07,17.34a126.47,126.47,0,0,1-11.9,16,188.76,188.76,0,0,0,9-17.62c1.4-3,2.67-6,4-9s2.45-6.1,3.67-9.14c4.8-12.2,8.74-24.71,12.3-37.28,1.82-6.27,3.26-12.65,4.87-19,.79-3.17,1.37-6.39,2.1-9.57s1.46-6.36,2-9.59c1.13-6.44,2.51-12.82,3.35-19.3l1.51-9.68c.43-3.22.65-6.42,1-9.63s.77-6.4.92-9.62l.31-9.66.19-4.83c0-1.61-.1-3.22-.14-4.83l-.29-9.67a264.21,264.21,0,0,0-5.23-38.41A255,255,0,0,0,1265.54,643.17Z" transform="translate(-11.6 5.12)"/><path class="cls-1" d="M755.72,994.88a638.41,638.41,0,0,0-29.27,59.39,543.21,543.21,0,0,0-22.66,61.82c-6.07,21-10.94,42.36-12.94,64a236.28,236.28,0,0,0-1.06,32.33,195.64,195.64,0,0,0,4,32A359.3,359.3,0,0,0,711.91,1307q5.83,15.29,12.91,30.08t15.23,29a463.21,463.21,0,0,0,36.58,54.63c13.5,17.34,28.24,33.81,44.85,48.48-18.26-12.64-34.37-28.25-49.29-44.78a397.29,397.29,0,0,1-40-53.61,386.32,386.32,0,0,1-30.63-59.74,358.26,358.26,0,0,1-19.33-64.5c-1-5.54-2-11.07-2.66-16.78s-1.08-11.36-1.27-17a226,226,0,0,1,1.49-33.94A322.63,322.63,0,0,1,695,1113.32a455.22,455.22,0,0,1,26.19-61.51C731.49,1032.08,742.69,1012.83,755.72,994.88Z" transform="translate(-11.6 5.12)"/><path class="cls-1" d="M1251.68,994.88c13,18,24.23,37.2,34.49,56.93a455.22,455.22,0,0,1,26.19,61.51,322.63,322.63,0,0,1,15.27,65.53,224.65,224.65,0,0,1,1.49,33.94c-.18,5.68-.57,11.37-1.27,17s-1.7,11.24-2.66,16.78a358.26,358.26,0,0,1-19.33,64.5,386.27,386.27,0,0,1-30.62,59.74,398.2,398.2,0,0,1-40,53.61c-14.92,16.53-31,32.14-49.29,44.78,16.61-14.67,31.35-31.14,44.85-48.48a460.76,460.76,0,0,0,36.58-54.63q8.1-14.28,15.23-29t12.91-30.08a360.2,360.2,0,0,0,18.13-62.64,197.85,197.85,0,0,0,4-32,236.29,236.29,0,0,0-1.07-32.33c-2-21.59-6.87-42.94-12.94-64a545.07,545.07,0,0,0-22.65-61.82A641,641,0,0,0,1251.68,994.88Z" transform="translate(-11.6 5.12)"/><path class="cls-1" d="M847,667.74c5-5.37,11.12-9.65,17.38-13.52a165.5,165.5,0,0,1,19.69-10.13,230.43,230.43,0,0,1,42.2-13.42l5.4-1.27,5.44-1L948,626.46c7.3-1,14.63-2,22-2.64l11-.83c3.68-.28,7.35-.55,11-.6l11-.27c3.68-.09,7.36-.22,11.06-.06,29.5.25,59.23,4.11,87.55,13a207.06,207.06,0,0,1,40.67,17.8,150.76,150.76,0,0,1,18.25,12.58A88.19,88.19,0,0,1,1176.18,681a109.12,109.12,0,0,0-17.44-12.92,168.43,168.43,0,0,0-19-10.11,244.53,244.53,0,0,0-40.52-14.09c-27.81-6.81-56.44-9.83-85.14-10.07-14.38-.16-28.81.24-43.16,1.09-3.6.09-7.16.57-10.75.85l-10.74,1-10.68,1.38-5.36.65-5.3.9a280.44,280.44,0,0,0-41.93,9.81c-3.48.95-6.79,2.33-10.21,3.5s-6.67,2.7-10,4.11L861,659.38l-4.8,2.52A71.57,71.57,0,0,0,847,667.74Z" transform="translate(-11.6 5.12)"/><path class="cls-1" d="M753.5,634.3S793.4,570,897.58,550.07C990,532.38,1108.16,539,1159.14,567.8c0,0-152.94-26.6-266-2.21C781.21,589.73,753.5,634.3,753.5,634.3Z" transform="translate(-11.6 5.12)"/><polygon class="cls-1" points="1661.56 838.67 1510.8 1065.97 1575.65 1057.22 1495.75 1147.95 1561.28 1133.7 1467.69 1295.4 1668.19 1102.21 1594.36 1104.26 1670.79 1001.92 1600.43 1015.57 1661.56 838.67"/><path d="M1453.18,1323.63l107.92-186.46-70,15.23,81.33-92.35-62.09,8.38,183.58-276.79-72.94,211.07,75.31-14.61L1618,1092.9l76.87-2.13ZM1584.67,1120l-79.26,137,159.33-153.53-70.79,2,74.59-99.87-65.42,12.69,49.32-142.73-117.93,177.81,67.61-9.11-78.48,89.1Z" transform="translate(-11.6 5.12)"/><polygon class="cls-1" points="344.89 838.67 495.65 1065.97 430.8 1057.22 510.7 1147.95 445.17 1133.7 538.75 1295.4 338.26 1102.21 412.09 1104.26 335.66 1001.92 406.02 1015.57 344.89 838.67"/><path d="M576.47,1323.63,334.81,1090.77l76.87,2.13L333.41,988.1l75.3,14.61L335.77,791.64l183.58,276.79-62.09-8.38,81.33,92.35-70-15.23ZM364.91,1103.4l159.33,153.53L445,1120l61,13.27-78.47-89.1,67.61,9.11L377.21,875.45l49.32,142.73-65.42-12.69,74.59,99.87Z" transform="translate(-11.6 5.12)"/><path class="cls-1" d="M1540.27,1600.89s-43.52,43.52-131.92,54.4-81.6,77.52-40.8,77.52,93.84-15,175.44-70.72,119.68-51.68,183.59-40.8,93.84-17.68,118.32-39.44c0,0-91.12,9.52-114.24-31.28,0,0,76.16-36.72,73.44-89.76,0,0-35.36,44.88-129.2,31.28s-163.19,38.08-163.19,38.08L1543,1571Z" transform="translate(-11.6 5.12)"/><path d="M1367.55,1737.91c-18.58,0-32.86-12.8-33.94-30.42-1.46-23.78,20.9-50.71,74.12-57.26,77.21-9.51,119.85-44.76,127.64-51.75l2.36-26-30.07-39.22a5.08,5.08,0,0,1-1-3.8,5.14,5.14,0,0,1,2-3.39c2.9-2.16,72.14-52.78,167-39,89.4,13,124.14-29,124.48-29.41a5.1,5.1,0,0,1,9.08,2.91c2.47,48-53.43,82.3-71.13,91.92,25.33,32.35,105.47,24.4,106.31,24.31a5.1,5.1,0,0,1,3.92,8.88l-2,1.79c-24.93,22.21-56,49.87-120.55,38.87-63.84-10.87-100.84-14-179.86,40C1474.37,1715.15,1417.71,1737.91,1367.55,1737.91ZM1519,1531.36l28,36.51a5.11,5.11,0,0,1,1,3.56l-2.72,29.92a5.06,5.06,0,0,1-1.48,3.14c-1.82,1.83-45.78,44.89-134.9,55.86-46.64,5.74-66.34,27.5-65.18,46.51.75,12.27,10.53,20.85,23.76,20.85,48,0,102.84-22.19,172.56-69.83,82.28-56.23,120.82-52.94,187.33-41.62,52.24,8.9,81-9.73,102.93-28.42-27.71.82-85.39-1.66-104.14-34.75a5.1,5.1,0,0,1,2.22-7.11c.66-.32,61.11-30,69.63-72.52-13.55,10.62-41.57,26.32-88.85,26.32a244.62,244.62,0,0,1-35.06-2.64C1596.43,1485.88,1535.34,1520.82,1519,1531.36Z" transform="translate(-11.6 5.12)"/><path d="M1600.78,1613c-22.49,4.76-40.67,15.39-59.35,28.52-21.37,15-42.87,30.59-65.69,43.38-21.82,12.22-44.82,22.25-69.17,28.22a114.64,114.64,0,0,1-41.55,2.65c-13.61-1.67-20.6-8.63-29.89-17.62-2-2-3.06,2.2-2.84,3.49,3.91,22.35,32.75,26.1,50.75,21.89,26.9-6.31,52.54-14.26,77.84-25.41,24.22-10.66,46.33-24.49,67.48-40.29,22.23-16.61,45.6-34.92,72.65-42.88.71-.21.55-2.12-.23-2Z" transform="translate(-11.6 5.12)"/><path d="M1595.68,1598.75c-22.5,4.76-40.67,15.39-59.35,28.52-21.37,15-42.87,30.6-65.69,43.38-21.82,12.22-44.82,22.25-69.17,28.22a114.86,114.86,0,0,1-41.55,2.66c-13.61-1.68-20.6-8.64-29.89-17.63-2-2-3.06,2.21-2.84,3.49,3.91,22.36,32.75,26.1,50.75,21.89,26.9-6.3,52.53-14.26,77.84-25.41,24.22-10.66,46.33-24.49,67.48-40.29,22.23-16.61,45.6-34.92,72.65-42.88.71-.21.55-2.11-.23-2Z" transform="translate(-11.6 5.12)"/><path d="M1590.58,1582.43c-22.5,4.76-40.67,15.39-59.35,28.52-21.37,15-42.87,30.6-65.69,43.38-21.82,12.22-44.82,22.25-69.17,28.22a114.86,114.86,0,0,1-41.55,2.66c-13.61-1.68-20.6-8.64-29.89-17.63-2-1.95-3.06,2.21-2.84,3.49,3.91,22.36,32.75,26.1,50.75,21.89,26.9-6.3,52.53-14.26,77.84-25.41,24.22-10.66,46.33-24.49,67.48-40.29,22.23-16.61,45.6-34.92,72.65-42.88.71-.21.55-2.11-.23-2Z" transform="translate(-11.6 5.12)"/><path d="M1585.48,1568.15c-22.5,4.76-40.67,15.39-59.35,28.52-21.37,15-42.87,30.6-65.69,43.38-21.82,12.22-44.82,22.25-69.17,28.22a114.64,114.64,0,0,1-41.55,2.65c-13.61-1.66-20.6-8.63-29.89-17.62-2-2-3.06,2.21-2.84,3.49,3.91,22.36,32.75,26.1,50.75,21.89,26.9-6.3,52.54-14.26,77.84-25.41,24.22-10.66,46.33-24.49,67.48-40.29,22.23-16.61,45.6-34.92,72.65-42.88.71-.21.55-2.11-.23-1.95Z" transform="translate(-11.6 5.12)"/><path d="M1580.38,1551.83c-22.5,4.76-40.67,15.39-59.34,28.52-21.38,15-42.88,30.6-65.7,43.38-21.82,12.22-44.81,22.25-69.17,28.22a114.86,114.86,0,0,1-41.55,2.66c-13.61-1.67-20.59-8.64-29.89-17.63-2-2-3.06,2.21-2.84,3.49,3.91,22.36,32.75,26.1,50.75,21.89,26.9-6.3,52.54-14.26,77.84-25.41,24.22-10.66,46.33-24.49,67.48-40.29,22.23-16.61,45.6-34.92,72.65-42.88.71-.21.55-2.11-.23-2Z" transform="translate(-11.6 5.12)"/><path d="M1574.26,1535.51c-22.49,4.76-40.67,15.39-59.34,28.52-21.38,15-42.88,30.6-65.7,43.38-21.82,12.22-44.82,22.25-69.17,28.22a114.86,114.86,0,0,1-41.55,2.66c-13.61-1.67-20.6-8.64-29.89-17.63-2-2-3.06,2.21-2.84,3.49,3.91,22.36,32.75,26.1,50.75,21.89,26.9-6.3,52.54-14.26,77.85-25.41,24.21-10.66,46.32-24.49,67.47-40.29,22.23-16.61,45.6-34.92,72.65-42.88.71-.21.55-2.11-.23-2Z" transform="translate(-11.6 5.12)"/><path d="M1568.14,1520.21c-22.49,4.76-40.67,15.39-59.35,28.52-21.37,15-42.87,30.6-65.69,43.38-21.82,12.22-44.81,22.25-69.17,28.22a114.86,114.86,0,0,1-41.55,2.66c-13.61-1.67-20.59-8.64-29.89-17.63-2-1.95-3.06,2.21-2.84,3.49,3.91,22.36,32.75,26.1,50.75,21.89,26.9-6.3,52.54-14.26,77.84-25.41,24.22-10.66,46.33-24.49,67.48-40.29,22.23-16.61,45.6-34.92,72.65-42.88.71-.21.55-2.11-.23-2Z" transform="translate(-11.6 5.12)"/><path d="M1812.93,1594a93.18,93.18,0,0,1-51,13.94c-17.07-.17-36.39-.79-53-4.54-.44-.1-.5.75-.14.88,32,12.1,77,13.59,104.47-9.3.27-.23.12-1.23-.3-1Z" transform="translate(-11.6 5.12)"/><path d="M1697.72,1603.3c-3.84-1.71-9-3.3-13.28-3.07-1,0-.88,1.88-.14,2.2,3.82,1.67,9.23,2.18,13.36,1.93.46,0,.42-.9.06-1.06Z" transform="translate(-11.6 5.12)"/><path d="M1676.25,1599.85c-2.54-.4-5.12-.36-7.67-.63a25.81,25.81,0,0,0-7.65,0c-.93.19-1.19,2.31-.16,2.52a24.74,24.74,0,0,0,7.29.17c2.73-.28,5.51-.28,8.22-.71.63-.1.58-1.3,0-1.4Z" transform="translate(-11.6 5.12)"/><path d="M1648.7,1601.83c-3.59-.23-8.13-1.09-11.49.47-.92.43-1.08,2.82.08,3.07,3.71.82,8-1.09,11.57-2.13.54-.17.41-1.37-.16-1.41Z" transform="translate(-11.6 5.12)"/><path d="M1624.27,1606.72c-3.77.65-7.53-.17-11.27.34-1.3.18-1.32,2.65-.2,3.1,3.8,1.53,8.08.16,11.72-1.22.77-.29.67-2.38-.25-2.22Z" transform="translate(-11.6 5.12)"/><path d="M1789.18,1483.65a272.9,272.9,0,0,1-70.25,54.86c-.62.34-.48,2,.36,1.72,27.63-10.91,53.3-31.24,70.46-55.53.25-.37-.09-1.57-.57-1Z" transform="translate(-11.6 5.12)"/><path class="cls-1" d="M459.73,1600.89s43.52,43.52,131.92,54.4,81.6,77.52,40.8,77.52-93.84-15-175.44-70.72-119.68-51.68-183.59-40.8-93.84-17.68-118.32-39.44c0,0,91.12,9.52,114.24-31.28,0,0-76.16-36.72-73.44-89.76,0,0,35.36,44.88,129.19,31.28s163.2,38.08,163.2,38.08L457,1571Z" transform="translate(-11.6 5.12)"/><path d="M632.45,1737.91c-50.16,0-106.82-22.76-178.32-71.61-79-54-116-50.85-179.86-40a167,167,0,0,1-27.91,2.49c-46.23,0-71.6-22.61-92.64-41.36l-2-1.79a5.1,5.1,0,0,1,3.92-8.88c.84.09,81,8,106.31-24.31-17.7-9.62-73.6-43.92-71.13-91.92a5.09,5.09,0,0,1,9.09-2.89c.33.41,35.06,42.34,124.46,29.39,94.84-13.75,164.08,36.87,167,39a5.14,5.14,0,0,1,2,3.39,5.08,5.08,0,0,1-1,3.8l-30.07,39.22,2.36,26c7.79,7,50.43,42.24,127.64,51.75,53.22,6.55,75.58,33.48,74.12,57.26C665.31,1725.11,651,1737.91,632.45,1737.91ZM333.21,1609.52c36.93,0,72.22,11.14,126.68,48.36,69.72,47.64,124.55,69.83,172.56,69.83,13.23,0,23-8.57,23.76-20.85,1.16-19-18.54-40.77-65.18-46.51-89.12-11-133.08-54-134.9-55.86a5.06,5.06,0,0,1-1.48-3.14l-2.72-29.92a5.12,5.12,0,0,1,1-3.56l28-36.51c-16.32-10.53-77.53-45.47-155.12-34.22-69,10-107.31-10.66-123.91-23.69,8.5,42.56,69,72.21,69.63,72.53a5.08,5.08,0,0,1,2.22,7.11c-18.75,33.08-76.42,35.58-104.15,34.75,22,18.69,50.7,37.31,102.94,28.42C295.05,1612.43,314.35,1609.52,333.21,1609.52Z" transform="translate(-11.6 5.12)"/><path d="M467.08,1604.91s28,32.7,89.21,42.22,100.55,30.36,101.28,53.26-4.72,27-4.72,27a74.16,74.16,0,0,0,25.84-46.24,158,158,0,0,1,17.68-53s-180.88-80.24-208.08-83l-31.28,15Z" transform="translate(-11.6 5.12)"/><path d="M1531.8,1604.91s-28,32.7-89.21,42.22-100.56,30.36-101.28,53.26,4.72,27,4.72,27a74.16,74.16,0,0,1-25.84-46.24,158.27,158.27,0,0,0-17.68-53s180.88-80.24,208.08-83l31.28,15Z" transform="translate(-11.6 5.12)"/><path d="M399,1615c26.52,7.8,49.56,25.55,71.37,41.89,21.59,16.18,44.08,30.36,68.82,41.29,25.19,11.13,50.79,19.15,77.59,25.35,18.17,4.19,47,.68,50.93-21.94.25-1.46-1-5.21-3-3.35-9.47,9-16.23,15.78-30,17.57a108.65,108.65,0,0,1-38-1.84c-25-5.79-48.66-15.79-71.08-28.19s-43.56-27.54-64.46-42.3c-19.52-13.77-38.27-25.4-61.9-30.41-.95-.2-1.1,1.69-.3,1.93Z" transform="translate(-11.6 5.12)"/><path d="M404.14,1600.71c26.52,7.8,49.56,25.55,71.37,41.89,21.59,16.18,44.08,30.36,68.82,41.29,25.19,11.13,50.79,19.15,77.59,25.34,18.17,4.2,47,.68,50.93-21.93.25-1.46-1.05-5.2-3-3.35-9.47,9-16.23,15.78-30,17.58a108.9,108.9,0,0,1-38-1.85c-25-5.79-48.66-15.79-71.08-28.19s-43.56-27.54-64.47-42.3c-19.51-13.77-38.26-25.41-61.89-30.41-.95-.2-1.1,1.69-.3,1.93Z" transform="translate(-11.6 5.12)"/><path d="M409.24,1584.39c26.52,7.8,49.56,25.55,71.37,41.89,21.59,16.18,44.08,30.36,68.82,41.29,25.19,11.14,50.79,19.15,77.59,25.34,18.17,4.2,47,.69,50.93-21.93.25-1.46-1.05-5.2-3-3.35-9.48,9-16.23,15.78-30,17.58a108.9,108.9,0,0,1-38-1.85c-25-5.79-48.66-15.79-71.08-28.19s-43.56-27.54-64.46-42.29c-19.52-13.78-38.27-25.42-61.9-30.42-1-.2-1.1,1.69-.3,1.93Z" transform="translate(-11.6 5.12)"/><path d="M414.34,1570.11c26.52,7.8,49.56,25.56,71.37,41.89,21.59,16.18,44.08,30.36,68.82,41.29,25.19,11.13,50.79,19.15,77.59,25.35,18.17,4.19,47,.68,50.93-21.94.25-1.46-1-5.21-3-3.35-9.47,9-16.23,15.78-30,17.57a108.65,108.65,0,0,1-38-1.84c-25-5.79-48.66-15.79-71.08-28.19s-43.56-27.54-64.46-42.29c-19.53-13.78-38.27-25.41-61.9-30.42-.95-.2-1.1,1.7-.3,1.93Z" transform="translate(-11.6 5.12)"/><path d="M419.44,1553.79c26.52,7.8,49.56,25.55,71.37,41.89,21.59,16.18,44.08,30.36,68.82,41.29,25.19,11.14,50.79,19.15,77.59,25.35,18.17,4.19,47,.68,50.93-21.94.25-1.46-1-5.2-3-3.35-9.47,9-16.23,15.78-30,17.58a108.9,108.9,0,0,1-38-1.85c-25-5.79-48.66-15.79-71.08-28.19s-43.56-27.54-64.47-42.29c-19.51-13.78-38.26-25.41-61.89-30.42-.95-.2-1.1,1.7-.3,1.93Z" transform="translate(-11.6 5.12)"/><path d="M425.56,1537.47c26.52,7.8,49.56,25.56,71.37,41.89,21.59,16.18,44.08,30.36,68.82,41.3,25.19,11.13,50.79,19.15,77.59,25.34,18.17,4.2,47,.68,50.93-21.94.25-1.46-1-5.2-3-3.35-9.47,9-16.23,15.79-30,17.58a108.9,108.9,0,0,1-38-1.85c-25-5.79-48.66-15.78-71.08-28.19s-43.56-27.54-64.47-42.29c-19.51-13.78-38.26-25.41-61.89-30.42-.95-.2-1.1,1.7-.3,1.93Z" transform="translate(-11.6 5.12)"/><path d="M431.68,1522.17c26.52,7.8,49.56,25.56,71.36,41.9,21.6,16.17,44.09,30.36,68.83,41.29,25.19,11.13,50.79,19.15,77.59,25.34,18.17,4.19,47,.68,50.93-21.94.25-1.46-1-5.2-3-3.35-9.48,9-16.23,15.79-30,17.58a108.9,108.9,0,0,1-38-1.85c-25-5.79-48.66-15.78-71.08-28.19s-43.56-27.54-64.47-42.29c-19.51-13.78-38.26-25.41-61.89-30.42-1-.2-1.1,1.7-.3,1.93Z" transform="translate(-11.6 5.12)"/><path class="cls-1" d="M1546,1562.07c-15.3-30.6-30.6-52-36.22-107.25s-32.45-64-60.79-49.19c-32.58,17-103.67,48.92-190.61,67.71-83.41,18-181.39,38.07-259.46,39.66-78.08-1.59-176.06-21.63-259.47-39.66-86.94-18.79-158-50.68-190.61-67.71-28.34-14.8-55.17-6.05-60.79,49.19s-20.92,76.65-36.22,107.25,15.3,42.84,15.3,42.84-21.42-58.13,36.72-39.78,116.27,64.26,263.14,97.91c130.44,29.9,186.64,27.54,231.93,27.54,37.33,0,105.77,2.22,231.93-27.54,129.73-30.59,205-79.55,263.14-97.91s36.71,39.78,36.71,39.78S1561.25,1592.67,1546,1562.07Z" transform="translate(-11.6 5.12)"/><path d="M979.25,1695.73c-43.66,0-100.32-1.79-213.45-27.71-98-22.47-155.8-49.9-202.2-72-22.61-10.73-42.13-20-61.34-26.07-10.29-3.25-23.83-5.78-29.95.61-7.33,7.67-2.8,26.09-.44,32.54a5.11,5.11,0,0,1-6.68,6.5c-.63-.26-15.41-6.3-20.83-20.59-3.38-8.87-2.42-18.72,2.86-29.27,2.3-4.61,4.62-9,6.86-13.31,13-24.77,24.16-46.16,28.85-92.18,3-29.31,12-48.21,26.74-56.16,11.54-6.21,25.88-5.18,41.48,3,20.15,10.53,93.36,46.49,189.33,67.23,84.68,18.31,181.45,38,258.39,39.55,76.93-1.58,173.71-21.24,258.39-39.55,96-20.74,169.17-56.7,189.32-67.23,15.6-8.16,30-9.18,41.48-3,14.76,7.95,23.76,26.85,26.75,56.16,4.68,46,15.88,67.41,28.84,92.18,2.24,4.27,4.56,8.7,6.86,13.31,5.28,10.55,6.24,20.4,2.87,29.27-5.43,14.29-20.21,20.33-20.83,20.59a5.1,5.1,0,0,1-6.68-6.5c2.36-6.45,6.88-24.87-.45-32.54-6.11-6.39-19.66-3.86-30-.61-19.89,6.28-42,16.3-67.71,27.9-49.28,22.29-110.61,50-195.79,70.11-119,28.06-185.9,27.82-225.88,27.69-5.85,0-10.91,0-16.42,0Q984.57,1695.73,979.25,1695.73ZM484.19,1556.47q9.1,0,21.14,3.8c19.88,6.27,39.7,15.69,62.65,26.59,45.95,21.83,103.14,49,200.1,71.21,121.19,27.78,176.85,27.6,221.56,27.43,5.52,0,10.61,0,16.49,0,39.52.13,105.68.37,223.49-27.42,84.23-19.86,145.06-47.37,193.93-69.47,26-11.74,48.38-21.88,68.85-28.34,19-6,32.59-4.89,40.41,3.31,7.5,7.86,7.57,20,6.09,29.48a22.89,22.89,0,0,0,5-7.69c2.29-6.08,1.45-13.15-2.48-21-2.26-4.52-4.56-8.9-6.78-13.14-12.89-24.64-25.07-47.9-29.95-95.87-2.58-25.38-10-42-21.44-48.21-10.63-5.73-23.23-1.52-31.92,3-20.44,10.67-94.67,47.15-191.89,68.16-85.18,18.42-182.58,38.19-260.44,39.78h-.21c-77.86-1.59-175.26-21.36-260.44-39.78-97.22-21-171.45-57.49-191.89-68.16-8.69-4.55-21.29-8.76-31.92-3-11.44,6.17-18.85,22.83-21.44,48.22-4.88,48-17.06,71.24-29.95,95.87-2.22,4.24-4.52,8.62-6.78,13.14-3.93,7.87-4.77,14.94-2.48,21a22.89,22.89,0,0,0,5,7.69c-1.48-9.45-1.4-21.62,6.1-29.48C469.44,1558.84,475.89,1556.47,484.19,1556.47Z" transform="translate(-11.6 5.12)"/><path d="M186.8,1595c27.51,22.85,72.46,21.41,104.46,9.3.32-.12.26-1-.1-.9-16.15,3.64-34.79,4.23-51.32,4.53-19.59.35-36.11-3.79-52.8-13.91-.42-.26-.51.76-.24,1Z" transform="translate(-11.6 5.12)"/><path d="M302.37,1604.36c4.19.25,9.51-.23,13.38-1.94.78-.34.69-2.14-.24-2.19-4.19-.22-9.48,1.39-13.26,3.08-.37.16-.33,1,.12,1Z" transform="translate(-11.6 5.12)"/><path d="M323.75,1601.25c2.54.4,5.12.36,7.67.62a25.16,25.16,0,0,0,7.65,0c.93-.18,1.19-2.3.16-2.5a24.41,24.41,0,0,0-7.29-.18c-2.73.28-5.51.28-8.22.71-.63.1-.58,1.3,0,1.4Z" transform="translate(-11.6 5.12)"/><path d="M351.17,1603.24c3.4,1,7.77,3,11.34,2.18,1.29-.29,1.36-2.6.2-3.13-3.37-1.56-7.87-.69-11.45-.46-.58,0-.61,1.26-.09,1.41Z" transform="translate(-11.6 5.12)"/><path d="M375.54,1609c3.64,1.38,7.93,2.74,11.73,1.2,1.18-.48.9-2.92-.35-3.09-3.73-.5-7.48.31-11.24-.34-.93-.17-.89,2-.14,2.23Z" transform="translate(-11.6 5.12)"/><path d="M1521.18,1544.45a76.63,76.63,0,0,0-33.83.17,72.65,72.65,0,0,0-15.92,5.75c-4.93,2.68-9.75,5.86-14.73,8.64-19.86,11.31-40.28,21.55-60.94,31.3-41.43,19.22-84,36.18-127.84,49.34-21.93,6.58-44.19,12-66.61,16.52s-45,8.35-67.62,11.47-45.4,5.55-68.2,7.34-45.64,3-68.57,3.08c-22.93-.1-45.78-1.31-68.58-3.08s-45.54-4.22-68.19-7.34-45.22-6.9-67.63-11.47-44.68-9.92-66.61-16.51c-43.85-13.16-86.41-30.12-127.84-49.34-20.65-9.75-41.08-20-60.94-31.31-5-2.77-9.8-6-14.73-8.63a72.28,72.28,0,0,0-15.92-5.75,76.49,76.49,0,0,0-33.83-.18,77.08,77.08,0,0,1,34-.73,73.09,73.09,0,0,1,16.29,5.51c5.15,2.67,9.92,5.7,15,8.37,20,10.87,40.6,20.68,61.39,30,41.57,18.62,84.19,35,127.92,47.55,43.74,12.32,88.56,20.95,133.65,27q33.84,4.52,67.9,7c22.68,1.67,45.43,2.77,68.13,2.8s45.44-1.13,68.13-2.79,45.34-4,67.89-7c45.1-6.05,89.91-14.66,133.66-27,43.73-12.52,86.35-28.94,127.92-47.55,20.79-9.31,41.38-19.12,61.39-30,5-2.67,9.81-5.69,14.95-8.36a73.2,73.2,0,0,1,16.3-5.52A77,77,0,0,1,1521.18,1544.45Z" transform="translate(-11.6 5.12)"/><path d="M352.69,623.72l13.2-20.93c4.62-6.83,9.15-13.73,13.87-20.51s9.61-13.43,14.61-20,10-13.15,15.27-19.51A750.94,750.94,0,0,1,637.26,353.34,747.93,747.93,0,0,1,822.78,282.4a764.07,764.07,0,0,1,394,11.72,755.87,755.87,0,0,1,334.32,207.52,769.87,769.87,0,0,1,62.75,76.78L1628,598.81l13.4,20.83,12.63,21.3,11.92,21.69a781.38,781.38,0,0,0-272.87-278.95A770.6,770.6,0,0,0,412,544.75c-5.41,6.2-10.47,12.7-15.72,19s-10.06,13-15.12,19.53-9.71,13.31-14.57,20Z" transform="translate(-11.6 5.12)"/><path d="M501.81,748.5l9.52-16.69c3.36-5.44,6.66-10.94,10.09-16.36s7.05-10.7,10.71-16,7.39-10.49,11.26-15.6a579.61,579.61,0,0,1,50.11-58.51,567.28,567.28,0,0,1,265.24-152,574.55,574.55,0,0,1,306.34,7.5A567.54,567.54,0,0,1,1422.6,645.65a577.79,577.79,0,0,1,47.18,60.9l10.47,16.14,9.92,16.48,9.27,16.84,8.68,17.13A589.82,589.82,0,0,0,1300.39,553.5,577.4,577.4,0,0,0,720,539.27,590.3,590.3,0,0,0,501.81,748.5Z" transform="translate(-11.6 5.12)"/><path d="M634.36,1504.33l-23,49.38-16.65-7.77,8.48-18.19-15.37-7.17-8.49,18.19L562.66,1531l23-49.37,16.64,7.76-8.15,17.49,15.37,7.17,8.16-17.5Z" transform="translate(-11.6 5.12)"/><path d="M659.83,1562.37,640.48,1555l-6.79,7.58L616.23,1556l41.61-42.46,16.88,6.41,2.91,59.39-17.75-6.75Zm0-14.17-.08-14.68-9.81,10.92Z" transform="translate(-11.6 5.12)"/><path d="M709,1574.46l-4.77-1.46-4,13.09-17.56-5.39,16-52.08,25.07,7.69a32.35,32.35,0,0,1,11.85,6.24,20.14,20.14,0,0,1,.34,29.66,18.78,18.78,0,0,1-9.32,4.39l6,19.42-18.75-5.75Zm14.31-21.7c-.86-1.43-2.49-2.52-4.87-3.25l-6.4-2-3.74,12.2,6.4,2c2.38.72,4.33.74,5.85,0a6.89,6.89,0,0,0,2.76-9Z" transform="translate(-11.6 5.12)"/><path d="M752.79,1545.1l26.12,6.18a37.14,37.14,0,0,1,14.88,6.92,25.25,25.25,0,0,1,8.35,11.7,29.15,29.15,0,0,1-6.67,28.17,25.16,25.16,0,0,1-12.71,6.71,37,37,0,0,1-16.4-.49l-26.13-6.18Zm16.11,45.08a13.14,13.14,0,0,0,10-1.11q4.22-2.49,5.64-8.47t-1.25-10.09a13.14,13.14,0,0,0-8.42-5.47l-7.5-1.78-6,25.15Z" transform="translate(-11.6 5.12)"/><path d="M866.94,1613.12l-20.5-2.87-4.94,8.89-18.5-2.58,31.14-50.66,17.88,2.51,16,57.25L869.25,1623Zm-3.17-13.81-3.35-14.3-7.14,12.84Z" transform="translate(-11.6 5.12)"/><path d="M905.28,1586.39l-15.9-1.27,1.13-14.2,50.12,4-1.14,14.19-15.9-1.27L920.38,1628l-18.31-1.46Z" transform="translate(-11.6 5.12)"/><path d="M997.8,1576.05l-.91,54.47-18.37-.3.34-20.08-17-.28-.34,20.07-18.36-.3.91-54.48,18.36.31-.32,19.3,17,.28.32-19.3Z" transform="translate(-11.6 5.12)"/><path d="M1005.14,1575.72l18.35-.84,1.82,40.2,24.57-1.12.64,14.23-42.91,2Z" transform="translate(-11.6 5.12)"/><path d="M1101.11,1609.36l1.37,13.78-45.07,4.5-5.4-54.21,44.06-4.4,1.38,13.79-26.1,2.6.63,6.35,22.92-2.29,1.31,13.17-22.92,2.28.71,7.13Z" transform="translate(-11.6 5.12)"/><path d="M1116.83,1580.4l-15.77,2.41-2.15-14.08,49.7-7.6,2.15,14.08-15.77,2.41,6.08,39.78-18.16,2.77Z" transform="translate(-11.6 5.12)"/><path d="M1152.43,1560.16l18-3.46,10.27,53.51-18,3.46Z" transform="translate(-11.6 5.12)"/><path d="M1202.54,1603.2a27.08,27.08,0,0,1-12.87-7.39,29.63,29.63,0,0,1-6.7-28.73,27.09,27.09,0,0,1,8.27-12.32,33.1,33.1,0,0,1,14.34-7,34.15,34.15,0,0,1,14.43-.5,26.38,26.38,0,0,1,11.85,5.55l-8.95,12.72q-6.37-5.07-13-3.51a12.14,12.14,0,0,0-8.18,5.7q-2.58,4.39-1.16,10.46t5.67,8.87a12.15,12.15,0,0,0,9.85,1.5q6.67-1.56,10.15-8.93l13.65,7.45a26.38,26.38,0,0,1-8.17,10.22,34.14,34.14,0,0,1-13.16,5.94A33.21,33.21,0,0,1,1202.54,1603.2Z" transform="translate(-11.6 5.12)"/><path d="M1297.86,1550l15.24-4.75,6.85,22a37.46,37.46,0,0,1-9.17,8.24,46.55,46.55,0,0,1-11.43,5.43,33.25,33.25,0,0,1-16,1.2,27,27,0,0,1-13.38-6.42,29.62,29.62,0,0,1-8.77-28.17,26.82,26.82,0,0,1,7.46-12.92,34.28,34.28,0,0,1,14.12-8.19,36.54,36.54,0,0,1,14.51-1.71,26.88,26.88,0,0,1,12.39,4.33l-8.14,13.38q-6.69-4.2-13.45-2.09-5.79,1.82-8.12,6.37t-.46,10.57a13.73,13.73,0,0,0,6.33,8.38,12.39,12.39,0,0,0,10.13.76,17.34,17.34,0,0,0,6-3.26Z" transform="translate(-11.6 5.12)"/><path d="M1354.16,1539.83l6.82,18.56-17.24,6.33-6.9-18.78-31.17-25.27,18.19-6.68,16.94,13.84,4-21.54,16.66-6.13Z" transform="translate(-11.6 5.12)"/><path d="M1428.94,1530.37l-10.06-22.7-2.89,23-7.42,3.23-18.46-12.76,9.57,22-15.34,6.68-21.76-49.94,13.84-6,27.87,19.53,4.24-33.52,13.84-6,21.91,49.88Z" transform="translate(-11.6 5.12)"/><path d="M388.36,712.56a23.58,23.58,0,1,1,23.58,23.58A23.59,23.59,0,0,1,388.36,712.56Z" transform="translate(-11.6 5.12)"/><path d="M1610,712.56a23.59,23.59,0,1,0-23.58,23.58A23.59,23.59,0,0,0,1610,712.56Z" transform="translate(-11.6 5.12)"/><path class="cls-2" d="M472.65,643.17a100,100,0,0,0,100,100" transform="translate(-11.6 5.12)"/><path class="cls-2" d="M411.94,712.56H1596.36" transform="translate(-11.6 5.12)"/><path class="cls-2" d="M1052,712.56c0-209.15-10.82-378.39-24.18-378.39" transform="translate(-11.6 5.12)"/><path class="cls-2" d="M1050.52,366.78c0,69.7,166.24,126.09,371.67,126.09" transform="translate(-11.6 5.12)"/><text class="cls-3" transform="translate(521.29 682.32) rotate(-69.17)"> </text><text class="cls-3" transform="matrix(0.68, -0.73, 0.73, 0.68, 548.65, 632.63)"> </text><text class="cls-3" transform="translate(585.8 592.02) rotate(-42.17)"> </text><text class="cls-3" transform="matrix(0.84, -0.55, 0.55, 0.84, 620.37, 552.82)">G</text><text class="cls-3" transform="translate(723.52 485.76) rotate(-22.37)">y</text><text class="cls-3" transform="translate(808.1 447.57) rotate(-10.57)">m</text><text class="cls-3" transform="translate(948.26 424.88) rotate(-0.94)"> </text><text class="cls-3" transform="translate(1000.09 420.36) rotate(8.28)">A</text><text class="cls-3" transform="translate(1131.14 440.83) rotate(19.55)">c</text><text class="cls-3" transform="matrix(0.87, 0.49, -0.49, 0.87, 1218.33, 471.01)">e</text><text class="cls-3" transform="matrix(0.78, 0.62, -0.62, 0.78, 1304.17, 519.75)">s</text><text class="cls-3" transform="translate(1371.42 576.18) rotate(47.56)">s</text></svg>