<svg id="Ñëîé_3" data-name="Ñëîé 3" xmlns="http://www.w3.org/2000/svg" viewBox="0 0 1700 1405.85"><defs><style>.cls-1{fill:#fff;}.cls-2{font-size:172px;font-family:Haettenschweiler;}.cls-3{fill:none;}</style></defs><path d="M1264.46,980.1c-9-24.39,18-55.42,42.82-117.48s22.53-177.33-45.07-248.27c-64.27-67.43-122.48-86.77-248.09-88.51v-.15c-3.41,0-6.72,0-10,0s-6.63,0-10,0v.15C868.43,527.58,810.22,546.92,746,614.35c-67.61,70.94-69.86,186.2-45.07,248.27s51.83,93.09,42.81,117.48S644.55,1110.88,669.34,1255s142,226.1,142,226.1,58.91,21.43,189.5,22.13v0h6.55v0c130.59-.7,189.5-22.13,189.5-22.13s117.18-82,142-226.1S1273.48,1004.48,1264.46,980.1ZM1190.1,787.25c-2.25,95.32-78.87,104.18-78.87,104.18-18.8-12.94-83.08-16.63-103.87-17.5v-.23l-3.28.11-3.27-.11v.23c-20.79.87-85.07,4.56-103.87,17.5,0,0-76.62-8.86-78.87-104.18S883.81,663,915,656.47c24.91-5.25,70.86-6.36,89.11-6.59,18.25.23,64.21,1.34,89.12,6.59C1124.36,663,1192.35,691.93,1190.1,787.25Z" transform="translate(-154.15 -334.17)"/><path class="cls-1" d="M849.44,962c14.31-.15,27.84-13.64,25.76-27.8-2.7-18.38-37.89-40.5-53.72-25.73C801.55,927.07,827.17,962.23,849.44,962Z" transform="translate(-154.15 -334.17)"/><path class="cls-1" d="M1236,876.33c-3.13,11.09-6.57,22.7-14.78,30.78s-22.82,10.88-31,2.8c-7.55-7.43-6.14-20.71.44-29s16.88-12.69,26.93-16.06C1232.05,860,1240.7,859.81,1236,876.33Z" transform="translate(-154.15 -334.17)"/><path class="cls-1" d="M905,1062.29c5.08,22.42,21.85,40.88,41.67,52.52s42.56,17.24,65.17,21.37c25.62,4.68,52.19,7.63,77.56,1.7s49.54-22.14,59.11-46.36c11.79-29.88-1.55-65.3-25.16-87.07-28.47-26.24-82.43-47.86-125.6-46.15C948.21,960.26,892.1,1005.35,905,1062.29Z" transform="translate(-154.15 -334.17)"/><path class="cls-1" d="M808.92,749.57S788.23,841.19,853.25,884C853.25,884,764.58,842.67,808.92,749.57Z" transform="translate(-154.15 -334.17)"/><path class="cls-1" d="M762,986c9.8-36.07-6-73.71-22.73-107.16-16.41-32.91-34.08-67.23-30.72-105.13-11.41,40.37-5.92,67.82,12.85,105.46C738.33,913.08,760.93,946.87,762,986Z" transform="translate(-154.15 -334.17)"/><path class="cls-1" d="M1265.54,643.17c17.32,20.27,29.23,45.06,36.64,70.93,4,12.92,6,26.36,7.46,39.83l.58,10.15c.08,1.69.22,3.38.25,5.08l-.09,5.08-.23,10.17c-.13,3.39-.61,6.76-.9,10.14s-.65,6.76-1.13,10.09l-1.62,9.91c-1,6.62-2.52,13.16-3.89,19.71a329.28,329.28,0,0,1-11.13,38.61,283.83,283.83,0,0,1-15.79,36.89c-3.21,5.88-6.4,11.75-10.07,17.34a126.47,126.47,0,0,1-11.9,16,188.76,188.76,0,0,0,9-17.62c1.4-3,2.67-6,4-9s2.45-6.1,3.67-9.14c4.8-12.2,8.74-24.71,12.3-37.28,1.82-6.27,3.26-12.65,4.87-19,.79-3.17,1.37-6.39,2.1-9.57s1.46-6.36,2-9.59c1.13-6.44,2.51-12.82,3.35-19.3l1.51-9.68c.43-3.22.65-6.42,1-9.63s.77-6.4.92-9.62l.31-9.66.19-4.83c0-1.61-.1-3.22-.14-4.83l-.29-9.67a264.21,264.21,0,0,0-5.23-38.41A255,255,0,0,0,1265.54,643.17Z" transform="translate(-154.15 -334.17)"/><path class="cls-1" d="M755.72,994.88a638.41,638.41,0,0,0-29.27,59.39,543.21,543.21,0,0,0-22.66,61.82c-6.07,21-10.94,42.36-12.94,64a236.28,236.28,0,0,0-1.06,32.33,195.64,195.64,0,0,0,4,32A359.3,359.3,0,0,0,711.91,1307q5.83,15.29,12.91,30.08t15.23,29a463.21,463.21,0,0,0,36.58,54.63c13.5,17.34,28.24,33.81,44.85,48.48-18.26-12.64-34.37-28.25-49.29-44.78a397.29,397.29,0,0,1-40-53.61,386.32,386.32,0,0,1-30.63-59.74,358.26,358.26,0,0,1-19.33-64.5c-1-5.54-2-11.07-2.66-16.78s-1.08-11.36-1.27-17a226,226,0,0,1,1.49-33.94A322.63,322.63,0,0,1,695,1113.32a455.22,455.22,0,0,1,26.19-61.51C731.49,1032.08,742.69,1012.83,755.72,994.88Z" transform="translate(-154.15 -334.17)"/><path class="cls-1" d="M1251.68,994.88c13,18,24.23,37.2,34.49,56.93a455.22,455.22,0,0,1,26.19,61.51,322.63,322.63,0,0,1,15.27,65.53,224.65,224.65,0,0,1,1.49,33.94c-.18,5.68-.57,11.37-1.27,17s-1.7,11.24-2.66,16.78a358.26,358.26,0,0,1-19.33,64.5,386.27,386.27,0,0,1-30.62,59.74,398.2,398.2,0,0,1-40,53.61c-14.92,16.53-31,32.14-49.29,44.78,16.61-14.67,31.35-31.14,44.85-48.48a460.76,460.76,0,0,0,36.58-54.63q8.1-14.28,15.23-29t12.91-30.08a360.2,360.2,0,0,0,18.13-62.64,197.85,197.85,0,0,0,4-32,236.29,236.29,0,0,0-1.07-32.33c-2-21.59-6.87-42.94-12.94-64a545.07,545.07,0,0,0-22.65-61.82A641,641,0,0,0,1251.68,994.88Z" transform="translate(-154.15 -334.17)"/><path class="cls-1" d="M847,667.74c5-5.37,11.12-9.65,17.38-13.52a165.5,165.5,0,0,1,19.69-10.13,230.43,230.43,0,0,1,42.2-13.42l5.4-1.27,5.44-1L948,626.46c7.3-1,14.63-2,22-2.64l11-.83c3.68-.28,7.35-.55,11-.6l11-.27c3.68-.09,7.36-.22,11.06-.06,29.5.25,59.23,4.11,87.55,13a207.06,207.06,0,0,1,40.67,17.8,150.76,150.76,0,0,1,18.25,12.58A88.19,88.19,0,0,1,1176.18,681a109.12,109.12,0,0,0-17.44-12.92,168.43,168.43,0,0,0-19-10.11,244.53,244.53,0,0,0-40.52-14.09c-27.81-6.81-56.44-9.83-85.14-10.07-14.38-.16-28.81.24-43.16,1.09-3.6.09-7.16.57-10.75.85l-10.74,1-10.68,1.38-5.36.65-5.3.9a280.44,280.44,0,0,0-41.93,9.81c-3.48.95-6.79,2.33-10.21,3.5s-6.67,2.7-10,4.11L861,659.38l-4.8,2.52A71.57,71.57,0,0,0,847,667.74Z" transform="translate(-154.15 -334.17)"/><path class="cls-1" d="M753.5,634.3S793.4,570,897.58,550.07C990,532.38,1108.16,539,1159.14,567.8c0,0-152.94-26.6-266-2.21C781.21,589.73,753.5,634.3,753.5,634.3Z" transform="translate(-154.15 -334.17)"/><polygon class="cls-1" points="1519.01 499.37 1368.25 726.67 1433.1 717.92 1353.2 808.65 1418.73 794.4 1325.14 956.11 1525.64 762.91 1451.81 764.96 1528.24 662.62 1457.88 676.27 1519.01 499.37"/><path d="M1453.18,1323.63l107.92-186.46-70,15.23,81.33-92.35-62.09,8.38,183.58-276.79-72.94,211.07,75.31-14.61L1618,1092.9l76.87-2.13ZM1584.67,1120l-79.26,137,159.33-153.53-70.79,2,74.59-99.87-65.42,12.69,49.32-142.73-117.93,177.81,67.61-9.11-78.48,89.1Z" transform="translate(-154.15 -334.17)"/><polygon class="cls-1" points="202.34 499.37 353.1 726.67 288.25 717.92 368.15 808.65 302.62 794.4 396.21 956.11 195.71 762.91 269.54 764.96 193.11 662.62 263.47 676.27 202.34 499.37"/><path d="M576.47,1323.63,334.81,1090.77l76.87,2.13L333.41,988.1l75.3,14.61L335.77,791.64l183.58,276.79-62.09-8.38,81.33,92.35-70-15.23ZM364.91,1103.4l159.33,153.53L445,1120l61,13.27-78.47-89.1,67.61,9.11L377.21,875.45l49.32,142.73-65.42-12.69,74.59,99.87Z" transform="translate(-154.15 -334.17)"/><path class="cls-1" d="M1544.42,1603s-43.52,43.52-131.92,54.4-81.6,77.51-40.8,77.51,93.84-15,175.44-70.71,119.68-51.68,183.59-40.8,93.84-17.68,118.32-39.44c0,0-91.12,9.52-114.24-31.28,0,0,76.16-36.72,73.44-89.76,0,0-35.36,44.88-129.19,31.28s-163.2,38.08-163.2,38.08l31.28,40.8Z" transform="translate(-154.15 -334.17)"/><path d="M1371.7,1740c-18.58,0-32.86-12.79-33.94-30.42-1.45-23.78,20.9-50.71,74.12-57.26,77.21-9.5,119.85-44.75,127.64-51.74l2.36-26-30.07-39.22a5.08,5.08,0,0,1-1-3.8,5.14,5.14,0,0,1,2-3.39c2.91-2.16,72.15-52.78,167-39,89.39,13,124.13-29,124.47-29.4a5.1,5.1,0,0,1,9.09,2.91c2.46,48-53.44,82.3-71.13,91.92,25.33,32.35,105.46,24.4,106.3,24.31a5.1,5.1,0,0,1,3.92,8.88l-2,1.79c-24.93,22.21-56,49.86-120.55,38.86-63.84-10.86-100.83-14-179.86,40C1478.52,1717.27,1421.86,1740,1371.7,1740Zm151.49-206.55,28,36.52a5.1,5.1,0,0,1,1,3.56l-2.72,29.92a5.06,5.06,0,0,1-1.48,3.14c-1.82,1.83-45.78,44.89-134.9,55.86-46.64,5.74-66.34,27.5-65.18,46.51.76,12.27,10.53,20.84,23.76,20.84,48,0,102.84-22.18,172.56-69.82,82.28-56.23,120.82-52.94,187.33-41.62,52.24,8.89,81-9.73,102.93-28.43-27.71.83-85.39-1.66-104.14-34.75a5.09,5.09,0,0,1,2.22-7.1c.67-.33,61.11-30,69.63-72.53-13.55,10.63-41.57,26.33-88.85,26.33a244.62,244.62,0,0,1-35.06-2.64C1600.58,1488,1539.49,1522.94,1523.19,1533.47Z" transform="translate(-154.15 -334.17)"/><path d="M1604.94,1615.15c-22.5,4.76-40.68,15.38-59.36,28.52-21.37,15-42.87,30.59-65.69,43.38-21.82,12.22-44.82,22.24-69.17,28.22a114.86,114.86,0,0,1-41.55,2.65c-13.61-1.67-20.6-8.63-29.89-17.62-2-2-3.06,2.2-2.84,3.49,3.91,22.35,32.75,26.1,50.75,21.88,26.9-6.3,52.54-14.25,77.84-25.4,24.22-10.66,46.33-24.5,67.48-40.29,22.23-16.61,45.6-34.92,72.65-42.88.71-.21.55-2.12-.22-1.95Z" transform="translate(-154.15 -334.17)"/><path d="M1599.83,1600.87c-22.5,4.76-40.67,15.38-59.35,28.52-21.37,15-42.87,30.59-65.69,43.37C1453,1685,1430,1695,1405.62,1701a114.86,114.86,0,0,1-41.55,2.65c-13.61-1.67-20.59-8.63-29.89-17.62-2-2-3.06,2.2-2.84,3.49,3.91,22.35,32.75,26.1,50.75,21.88,26.9-6.3,52.54-14.25,77.84-25.4,24.22-10.67,46.33-24.49,67.48-40.29,22.23-16.61,45.6-34.92,72.65-42.88.71-.21.55-2.12-.23-2Z" transform="translate(-154.15 -334.17)"/><path d="M1594.74,1584.55c-22.51,4.76-40.68,15.38-59.35,28.52-21.38,15-42.88,30.59-65.7,43.37-21.82,12.23-44.81,22.25-69.17,28.23a114.86,114.86,0,0,1-41.55,2.65c-13.61-1.67-20.59-8.63-29.89-17.62-2-2-3.06,2.2-2.84,3.49,3.91,22.35,32.75,26.1,50.75,21.88,26.9-6.3,52.54-14.25,77.84-25.4,24.22-10.66,46.33-24.49,67.48-40.29,22.23-16.61,45.6-34.92,72.65-42.88.71-.21.55-2.12-.22-2Z" transform="translate(-154.15 -334.17)"/><path d="M1589.64,1570.27c-22.5,4.76-40.68,15.38-59.35,28.52-21.38,15-42.88,30.59-65.7,43.38-21.82,12.22-44.81,22.24-69.17,28.22a114.64,114.64,0,0,1-41.55,2.65c-13.61-1.67-20.59-8.63-29.89-17.62-2-2-3.06,2.2-2.84,3.49,3.91,22.35,32.75,26.1,50.75,21.88,26.9-6.3,52.54-14.25,77.84-25.4,24.22-10.66,46.33-24.49,67.48-40.29,22.23-16.61,45.6-34.92,72.65-42.88.71-.21.55-2.12-.22-2Z" transform="translate(-154.15 -334.17)"/><path d="M1584.53,1554c-22.49,4.76-40.67,15.38-59.34,28.52-21.38,15-42.88,30.59-65.7,43.38-21.82,12.22-44.81,22.24-69.17,28.22a114.64,114.64,0,0,1-41.55,2.65c-13.61-1.67-20.59-8.63-29.89-17.62-2-1.95-3.06,2.2-2.84,3.49,3.91,22.35,32.75,26.1,50.75,21.88,26.9-6.3,52.54-14.25,77.85-25.4,24.21-10.66,46.32-24.49,67.47-40.29,22.23-16.61,45.61-34.92,72.65-42.88.71-.21.55-2.12-.23-2Z" transform="translate(-154.15 -334.17)"/><path d="M1578.41,1537.63c-22.49,4.76-40.67,15.38-59.34,28.52-21.38,15-42.88,30.59-65.7,43.38-21.82,12.22-44.81,22.25-69.17,28.22a114.64,114.64,0,0,1-41.55,2.65c-13.61-1.66-20.59-8.63-29.89-17.62-2-2-3.06,2.21-2.84,3.49,3.91,22.36,32.75,26.1,50.75,21.88,26.9-6.29,52.54-14.25,77.85-25.4,24.21-10.66,46.32-24.49,67.47-40.29,22.23-16.61,45.61-34.92,72.65-42.88.71-.21.55-2.11-.23-1.95Z" transform="translate(-154.15 -334.17)"/><path d="M1572.3,1522.33c-22.5,4.76-40.68,15.39-59.35,28.52-21.38,15-42.88,30.6-65.7,43.38-21.82,12.22-44.81,22.25-69.17,28.22a114.64,114.64,0,0,1-41.55,2.65c-13.61-1.67-20.59-8.63-29.89-17.62-2-2-3.06,2.21-2.84,3.49,3.91,22.35,32.75,26.1,50.75,21.89,26.9-6.3,52.54-14.26,77.85-25.41,24.21-10.66,46.32-24.49,67.47-40.29,22.23-16.61,45.61-34.92,72.65-42.88.71-.21.55-2.12-.22-2Z" transform="translate(-154.15 -334.17)"/><path d="M1817.08,1596.15a93.18,93.18,0,0,1-51,13.94c-17.07-.17-36.38-.79-53-4.55-.44-.1-.5.76-.14.89,32,12.1,77,13.58,104.47-9.31.27-.22.12-1.23-.3-1Z" transform="translate(-154.15 -334.17)"/><path d="M1701.88,1605.42c-3.85-1.71-9-3.3-13.29-3.07-1,.05-.88,1.87-.14,2.2,3.82,1.67,9.23,2.18,13.36,1.93.47,0,.42-.9.07-1.06Z" transform="translate(-154.15 -334.17)"/><path d="M1680.4,1602c-2.54-.4-5.12-.37-7.67-.63a25.16,25.16,0,0,0-7.65.05c-.93.19-1.19,2.31-.16,2.51a24.08,24.08,0,0,0,7.29.17c2.73-.27,5.51-.27,8.22-.71.63-.1.58-1.29,0-1.39Z" transform="translate(-154.15 -334.17)"/><path d="M1652.85,1604c-3.59-.23-8.12-1.1-11.48.47-.93.43-1.09,2.82.07,3.07,3.71.81,8-1.09,11.57-2.14.54-.16.41-1.37-.16-1.4Z" transform="translate(-154.15 -334.17)"/><path d="M1628.42,1608.84c-3.77.65-7.53-.17-11.27.34-1.3.18-1.32,2.65-.2,3.1,3.8,1.52,8.08.16,11.72-1.22.77-.29.67-2.39-.25-2.22Z" transform="translate(-154.15 -334.17)"/><path d="M1793.33,1485.76a272.84,272.84,0,0,1-70.24,54.87c-.63.34-.49,2,.35,1.72,27.63-10.91,53.3-31.24,70.46-55.54.25-.36-.09-1.56-.57-1Z" transform="translate(-154.15 -334.17)"/><path class="cls-1" d="M463.88,1603s43.52,43.52,131.92,54.4,81.6,77.51,40.8,77.51-93.84-15-175.44-70.71-119.67-51.68-183.59-40.8-93.84-17.68-118.32-39.44c0,0,91.12,9.52,114.24-31.28,0,0-76.16-36.72-73.44-89.76,0,0,35.36,44.88,129.2,31.28s163.19,38.08,163.19,38.08l-31.28,40.8Z" transform="translate(-154.15 -334.17)"/><path d="M636.6,1740c-50.16,0-106.82-22.75-178.31-71.61-79-54-116-50.84-179.87-40a166,166,0,0,1-27.91,2.5c-46.23,0-71.6-22.61-92.64-41.36l-2-1.79a5.1,5.1,0,0,1,3.92-8.88c.84.08,81,8,106.31-24.31-17.7-9.62-73.6-43.92-71.13-91.92a5.1,5.1,0,0,1,9.1-2.9c.32.42,35.05,42.35,124.46,29.39,94.83-13.74,164.07,36.88,167,39a5.11,5.11,0,0,1,1,7.19l-30.07,39.22,2.36,26c7.79,7,50.44,42.24,127.64,51.74,53.22,6.55,75.58,33.48,74.12,57.26C669.46,1727.23,655.19,1740,636.6,1740ZM337.37,1611.64c36.92,0,72.21,11.14,126.67,48.36,69.72,47.64,124.55,69.82,172.56,69.82,13.24,0,23-8.57,23.76-20.84,1.16-19-18.54-40.77-65.18-46.51-89.12-11-133.08-54-134.9-55.86a5.06,5.06,0,0,1-1.48-3.14l-2.72-29.92a5.1,5.1,0,0,1,1-3.56l28-36.51C468.78,1523,407.57,1488,330,1499.26c-69,10-107.31-10.66-123.91-23.69,8.5,42.56,69,72.2,69.63,72.52a5.17,5.17,0,0,1,2.66,3.08,5.07,5.07,0,0,1-.44,4c-18.75,33.09-76.42,35.59-104.14,34.75,22,18.7,50.69,37.32,102.93,28.43C299.2,1614.55,318.5,1611.64,337.37,1611.64Z" transform="translate(-154.15 -334.17)"/><path d="M471.23,1607s28,32.7,89.21,42.22,100.56,30.36,101.28,53.26-4.72,27-4.72,27a74.16,74.16,0,0,0,25.84-46.24,158.16,158.16,0,0,1,17.68-53s-180.88-80.24-208.08-83l-31.28,15Z" transform="translate(-154.15 -334.17)"/><path d="M1536,1607s-28,32.7-89.21,42.22-100.56,30.36-101.28,53.26,4.72,27,4.72,27a74.16,74.16,0,0,1-25.84-46.24,158.16,158.16,0,0,0-17.68-53s180.88-80.24,208.08-83l31.28,15Z" transform="translate(-154.15 -334.17)"/><path d="M403.19,1617.11c26.52,7.8,49.56,25.55,71.37,41.89,21.59,16.18,44.08,30.36,68.82,41.29,25.19,11.13,50.79,19.15,77.59,25.34,18.17,4.2,47,.68,50.93-21.94.25-1.45-1-5.2-3-3.34-9.47,9-16.23,15.78-30,17.57a108.66,108.66,0,0,1-38-1.85c-25-5.78-48.66-15.78-71.08-28.18s-43.56-27.55-64.46-42.3c-19.52-13.77-38.27-25.41-61.9-30.41-.95-.2-1.1,1.69-.3,1.93Z" transform="translate(-154.15 -334.17)"/><path d="M408.29,1602.83c26.52,7.8,49.56,25.55,71.37,41.89,21.59,16.18,44.08,30.36,68.82,41.29,25.19,11.13,50.79,19.15,77.59,25.34,18.17,4.2,47,.68,50.93-21.93.25-1.46-1-5.21-3-3.35-9.48,9-16.24,15.78-30,17.57a108.42,108.42,0,0,1-38-1.85C581,1696,557.37,1686,535,1673.61s-43.56-27.55-64.46-42.3c-19.52-13.77-38.27-25.41-61.9-30.41-.95-.2-1.1,1.69-.3,1.93Z" transform="translate(-154.15 -334.17)"/><path d="M413.39,1586.51c26.52,7.8,49.56,25.55,71.37,41.89,21.59,16.18,44.08,30.36,68.83,41.29,25.18,11.13,50.78,19.15,77.58,25.34,18.17,4.2,47.05.68,50.93-21.93.25-1.46-1.05-5.21-3-3.35-9.48,9-16.24,15.78-30,17.57a108.65,108.65,0,0,1-38-1.84c-25-5.79-48.66-15.79-71.08-28.19s-43.56-27.55-64.46-42.3c-19.52-13.77-38.27-25.41-61.9-30.41-.95-.2-1.1,1.69-.3,1.93Z" transform="translate(-154.15 -334.17)"/><path d="M418.49,1572.23c26.52,7.8,49.56,25.55,71.37,41.89,21.59,16.18,44.08,30.36,68.82,41.29,25.19,11.13,50.79,19.15,77.59,25.34,18.17,4.2,47,.68,50.93-21.93.25-1.46-1.05-5.21-3-3.35-9.47,9-16.23,15.78-30,17.57a108.65,108.65,0,0,1-38-1.84c-25-5.79-48.66-15.79-71.08-28.19s-43.56-27.55-64.46-42.3c-19.52-13.77-38.27-25.41-61.9-30.41-1-.2-1.1,1.69-.3,1.93Z" transform="translate(-154.15 -334.17)"/><path d="M423.59,1555.91c26.52,7.8,49.56,25.55,71.37,41.89,21.59,16.18,44.08,30.36,68.82,41.29,25.19,11.13,50.79,19.15,77.59,25.35,18.17,4.19,47,.67,50.93-21.94.25-1.46-1-5.21-3-3.35-9.47,9-16.23,15.78-30,17.57a108.65,108.65,0,0,1-38-1.84c-25-5.79-48.66-15.79-71.08-28.19s-43.56-27.54-64.46-42.3c-19.52-13.77-38.27-25.4-61.9-30.41-.95-.2-1.1,1.69-.3,1.93Z" transform="translate(-154.15 -334.17)"/><path d="M429.71,1539.59c26.52,7.8,49.56,25.55,71.37,41.89,21.59,16.18,44.08,30.36,68.82,41.29,25.19,11.13,50.79,19.15,77.59,25.34,18.17,4.2,47,.68,50.93-21.93.25-1.46-1-5.21-3-3.35-9.47,9-16.23,15.78-30,17.57a108.65,108.65,0,0,1-38-1.84c-25-5.79-48.66-15.79-71.08-28.19s-43.56-27.55-64.47-42.3c-19.51-13.77-38.26-25.41-61.89-30.41-.95-.2-1.1,1.69-.3,1.93Z" transform="translate(-154.15 -334.17)"/><path d="M435.83,1524.29c26.52,7.8,49.56,25.55,71.37,41.89,21.59,16.18,44.08,30.36,68.82,41.29,25.19,11.13,50.79,19.15,77.59,25.34,18.17,4.2,47,.68,50.93-21.93.25-1.46-1-5.21-3-3.35-9.47,9-16.23,15.78-30,17.57a108.65,108.65,0,0,1-38-1.84c-25-5.79-48.66-15.79-71.08-28.19s-43.56-27.54-64.46-42.29c-19.52-13.78-38.27-25.41-61.9-30.42-.95-.2-1.1,1.7-.3,1.93Z" transform="translate(-154.15 -334.17)"/><path class="cls-1" d="M1550.1,1564.19c-15.3-30.6-30.59-52-36.22-107.25s-32.45-64-60.79-49.19c-32.58,17-103.67,48.92-190.61,67.71-83.41,18-181.39,38.07-259.46,39.66-78.08-1.59-176.06-21.63-259.47-39.66-86.93-18.79-158-50.68-190.61-67.71-28.34-14.81-55.17-6-60.79,49.19s-20.92,76.65-36.22,107.25,15.3,42.84,15.3,42.84-21.42-58.14,36.72-39.78,116.27,64.26,263.14,97.91c130.44,29.9,186.64,27.54,231.93,27.54,37.33,0,105.77,2.22,231.93-27.54,129.73-30.59,205-79.55,263.14-97.91S1534.8,1607,1534.8,1607,1565.4,1594.79,1550.1,1564.19Z" transform="translate(-154.15 -334.17)"/><path d="M983.4,1697.85c-43.66,0-100.32-1.79-213.45-27.72-98.05-22.47-155.8-49.89-202.2-71.94-22.61-10.74-42.13-20-61.34-26.08-10.29-3.24-23.83-5.78-30,.62-7.33,7.67-2.8,26.09-.44,32.54a5.1,5.1,0,0,1-6.68,6.49c-.63-.25-15.4-6.3-20.83-20.58-3.38-8.87-2.42-18.72,2.86-29.27,2.3-4.61,4.62-9,6.86-13.31,13-24.77,24.16-46.16,28.85-92.18,3-29.31,12-48.21,26.74-56.16,11.54-6.21,25.88-5.18,41.49,3,20.15,10.53,93.35,46.5,189.32,67.24,84.68,18.31,181.45,38,258.39,39.55,76.93-1.59,173.71-21.24,258.39-39.55,96-20.74,169.17-56.71,189.32-67.24,15.6-8.15,30-9.18,41.48-3,14.76,8,23.76,26.85,26.75,56.16,4.68,46,15.88,67.41,28.84,92.17,2.24,4.28,4.56,8.71,6.86,13.32,5.28,10.55,6.24,20.4,2.87,29.27-5.43,14.28-20.21,20.33-20.83,20.58a5.1,5.1,0,0,1-6.68-6.49c2.36-6.45,6.88-24.87-.45-32.54-6.11-6.4-19.66-3.86-30-.62-19.89,6.28-42,16.31-67.71,27.91-49.28,22.28-110.6,50-195.79,70.11-119,28.06-185.9,27.82-225.88,27.69-5.85,0-10.91,0-16.42,0C990.42,1697.83,987,1697.85,983.4,1697.85ZM488.34,1558.59q9.11,0,21.14,3.8c19.88,6.27,39.7,15.69,62.65,26.59,46,21.83,103.14,49,200.1,71.21,121.19,27.77,176.85,27.59,221.56,27.43,5.52,0,10.61,0,16.49,0,39.52.13,105.68.37,223.5-27.42,84.22-19.87,145-47.37,193.92-69.47,26-11.74,48.39-21.88,68.85-28.34,19-6,32.59-4.89,40.41,3.3,7.5,7.87,7.57,20,6.09,29.49a22.84,22.84,0,0,0,5-7.69c2.29-6.08,1.45-13.16-2.48-21-2.26-4.52-4.56-8.91-6.78-13.15-12.89-24.63-25.07-47.9-30-95.87-2.58-25.38-10-42-21.44-48.21-10.63-5.72-23.22-1.51-31.92,3-20.44,10.68-94.67,47.16-191.89,68.17-85.18,18.41-182.58,38.19-260.44,39.78h-.21c-77.85-1.59-175.25-21.37-260.44-39.78-97.22-21-171.45-57.49-191.89-68.17-8.69-4.54-21.29-8.75-31.92-3-11.44,6.16-18.85,22.83-21.44,48.21-4.88,48-17.06,71.24-30,95.88-2.22,4.24-4.52,8.62-6.78,13.14-3.93,7.86-4.76,14.94-2.48,21a23,23,0,0,0,5,7.69c-1.48-9.45-1.4-21.62,6.1-29.49C473.59,1561,480,1558.59,488.34,1558.59Z" transform="translate(-154.15 -334.17)"/><path d="M191,1597.13c27.51,22.84,72.46,21.41,104.46,9.3.32-.12.26-1-.1-.9-16.15,3.64-34.78,4.23-51.32,4.53-19.59.35-36.11-3.79-52.8-13.92-.42-.25-.51.77-.24,1Z" transform="translate(-154.15 -334.17)"/><path d="M306.52,1606.48c4.2.25,9.51-.24,13.39-1.94.77-.34.68-2.14-.25-2.19-4.19-.23-9.48,1.38-13.26,3.07-.37.17-.33,1,.12,1.06Z" transform="translate(-154.15 -334.17)"/><path d="M327.9,1603.36c2.54.41,5.12.37,7.67.63a25.16,25.16,0,0,0,7.65,0c.93-.18,1.19-2.31.16-2.51a24.41,24.41,0,0,0-7.29-.17c-2.73.28-5.51.28-8.22.71-.63.1-.58,1.3,0,1.39Z" transform="translate(-154.15 -334.17)"/><path d="M355.32,1605.36c3.4,1,7.77,3,11.34,2.18,1.3-.29,1.36-2.6.2-3.14-3.37-1.55-7.86-.68-11.45-.45-.58,0-.61,1.26-.09,1.41Z" transform="translate(-154.15 -334.17)"/><path d="M379.69,1611.07c3.64,1.38,7.93,2.74,11.74,1.19,1.17-.47.89-2.91-.35-3.08-3.74-.5-7.49.31-11.25-.34-.93-.17-.89,2-.14,2.23Z" transform="translate(-154.15 -334.17)"/><text class="cls-2" transform="translate(518.7 1270.7) rotate(16.94)">G</text><text class="cls-2" transform="translate(585.47 1290.65) rotate(12.3)">Y</text><text class="cls-2" transform="translate(665.98 1307.86) rotate(7.18)">M</text><text class="cls-2" transform="matrix(1, 0.06, -0.06, 1, 768.44, 1319.43)"> </text><text class="cls-2" transform="translate(803.34 1321.91) rotate(-0.11)">A</text><text class="cls-2" transform="translate(884.48 1321.31) rotate(-4.36)">C</text><text class="cls-2" transform="matrix(0.99, -0.14, 0.14, 0.99, 952.84, 1316.56)">C</text><text class="cls-2" transform="translate(1020.99 1306.87) rotate(-12.06)">E</text><text class="cls-2" transform="translate(1081.51 1293.8) rotate(-16.52)">S</text><text class="cls-2" transform="translate(1149.12 1272.4) rotate(-20.2)">S</text><path d="M388.36,712.56a23.58,23.58,0,1,1,23.58,23.58A23.59,23.59,0,0,1,388.36,712.56Z" transform="translate(-154.15 -334.17)"/><path d="M1610,712.56a23.59,23.59,0,1,0-23.58,23.58A23.59,23.59,0,0,0,1610,712.56Z" transform="translate(-154.15 -334.17)"/><path class="cls-3" d="M472.65,643.17a100,100,0,0,0,100,100" transform="translate(-154.15 -334.17)"/><path class="cls-3" d="M411.94,712.56H1596.36" transform="translate(-154.15 -334.17)"/><path class="cls-3" d="M1052,712.56c0-209.15-10.82-378.39-24.18-378.39" transform="translate(-154.15 -334.17)"/><path class="cls-3" d="M1050.52,366.78c0,69.7,166.24,126.09,371.67,126.09" transform="translate(-154.15 -334.17)"/><path class="cls-3" d="M524.24,1511.9c0,4.59,421.6,8.3,942.62,8.3" transform="translate(-154.15 -334.17)"/></svg>